<mxfile host="app.diagrams.net" modified="2020-12-13T14:31:10.988Z" agent="5.0 (Windows NT 10.0; Win64; x64) AppleWebKit/537.36 (KHTML, like Gecko) Chrome/87.0.4280.88 Safari/537.36" etag="ba62OLoRf21OYNz1fO_I" version="14.0.0" type="github">
  <diagram id="rvuX24C_XTxvJnB4NAfD" name="Page-1">
    <mxGraphModel dx="1296" dy="619" grid="1" gridSize="10" guides="1" tooltips="1" connect="1" arrows="1" fold="1" page="1" pageScale="1" pageWidth="827" pageHeight="1169" math="0" shadow="0">
      <root>
        <mxCell id="0" />
        <mxCell id="1" parent="0" />
        <mxCell id="CJ_4Z4QV0hS_-EtavO5i-1" value="" style="shape=flexArrow;endArrow=classic;html=1;endWidth=12;endSize=7.33;" edge="1" parent="1">
          <mxGeometry width="50" height="50" relative="1" as="geometry">
            <mxPoint x="220" y="279" as="sourcePoint" />
            <mxPoint x="260" y="279" as="targetPoint" />
          </mxGeometry>
        </mxCell>
        <mxCell id="CJ_4Z4QV0hS_-EtavO5i-2" value="" style="shape=table;html=1;whiteSpace=wrap;startSize=0;container=1;collapsible=0;childLayout=tableLayout;" vertex="1" parent="1">
          <mxGeometry x="80" y="235" width="90" height="90" as="geometry" />
        </mxCell>
        <mxCell id="CJ_4Z4QV0hS_-EtavO5i-3" value="" style="shape=partialRectangle;html=1;whiteSpace=wrap;collapsible=0;dropTarget=0;pointerEvents=0;fillColor=none;top=0;left=0;bottom=0;right=0;points=[[0,0.5],[1,0.5]];portConstraint=eastwest;" vertex="1" parent="CJ_4Z4QV0hS_-EtavO5i-2">
          <mxGeometry width="90" height="30" as="geometry" />
        </mxCell>
        <mxCell id="CJ_4Z4QV0hS_-EtavO5i-4" value="" style="shape=partialRectangle;html=1;whiteSpace=wrap;connectable=0;fillColor=none;top=0;left=0;bottom=0;right=0;overflow=hidden;" vertex="1" parent="CJ_4Z4QV0hS_-EtavO5i-3">
          <mxGeometry width="29" height="30" as="geometry" />
        </mxCell>
        <mxCell id="CJ_4Z4QV0hS_-EtavO5i-5" value="" style="shape=partialRectangle;html=1;whiteSpace=wrap;connectable=0;fillColor=none;top=0;left=0;bottom=0;right=0;overflow=hidden;" vertex="1" parent="CJ_4Z4QV0hS_-EtavO5i-3">
          <mxGeometry x="29" width="32" height="30" as="geometry" />
        </mxCell>
        <mxCell id="CJ_4Z4QV0hS_-EtavO5i-6" value="" style="shape=partialRectangle;html=1;whiteSpace=wrap;connectable=0;fillColor=none;top=0;left=0;bottom=0;right=0;overflow=hidden;" vertex="1" parent="CJ_4Z4QV0hS_-EtavO5i-3">
          <mxGeometry x="61" width="29" height="30" as="geometry" />
        </mxCell>
        <mxCell id="CJ_4Z4QV0hS_-EtavO5i-7" value="" style="shape=partialRectangle;html=1;whiteSpace=wrap;collapsible=0;dropTarget=0;pointerEvents=0;fillColor=none;top=0;left=0;bottom=0;right=0;points=[[0,0.5],[1,0.5]];portConstraint=eastwest;" vertex="1" parent="CJ_4Z4QV0hS_-EtavO5i-2">
          <mxGeometry y="30" width="90" height="30" as="geometry" />
        </mxCell>
        <mxCell id="CJ_4Z4QV0hS_-EtavO5i-8" value="" style="shape=partialRectangle;html=1;whiteSpace=wrap;connectable=0;fillColor=none;top=0;left=0;bottom=0;right=0;overflow=hidden;" vertex="1" parent="CJ_4Z4QV0hS_-EtavO5i-7">
          <mxGeometry width="29" height="30" as="geometry" />
        </mxCell>
        <mxCell id="CJ_4Z4QV0hS_-EtavO5i-9" value="" style="shape=partialRectangle;html=1;whiteSpace=wrap;connectable=0;fillColor=#ffe6cc;top=0;left=0;bottom=0;right=0;overflow=hidden;strokeColor=#d79b00;" vertex="1" parent="CJ_4Z4QV0hS_-EtavO5i-7">
          <mxGeometry x="29" width="32" height="30" as="geometry" />
        </mxCell>
        <mxCell id="CJ_4Z4QV0hS_-EtavO5i-10" value="" style="shape=partialRectangle;html=1;whiteSpace=wrap;connectable=0;fillColor=none;top=0;left=0;bottom=0;right=0;overflow=hidden;" vertex="1" parent="CJ_4Z4QV0hS_-EtavO5i-7">
          <mxGeometry x="61" width="29" height="30" as="geometry" />
        </mxCell>
        <mxCell id="CJ_4Z4QV0hS_-EtavO5i-11" value="" style="shape=partialRectangle;html=1;whiteSpace=wrap;collapsible=0;dropTarget=0;pointerEvents=0;fillColor=none;top=0;left=0;bottom=0;right=0;points=[[0,0.5],[1,0.5]];portConstraint=eastwest;" vertex="1" parent="CJ_4Z4QV0hS_-EtavO5i-2">
          <mxGeometry y="60" width="90" height="30" as="geometry" />
        </mxCell>
        <mxCell id="CJ_4Z4QV0hS_-EtavO5i-12" value="" style="shape=partialRectangle;html=1;whiteSpace=wrap;connectable=0;fillColor=none;top=0;left=0;bottom=0;right=0;overflow=hidden;" vertex="1" parent="CJ_4Z4QV0hS_-EtavO5i-11">
          <mxGeometry width="29" height="30" as="geometry" />
        </mxCell>
        <mxCell id="CJ_4Z4QV0hS_-EtavO5i-13" value="" style="shape=partialRectangle;html=1;whiteSpace=wrap;connectable=0;fillColor=none;top=0;left=0;bottom=0;right=0;overflow=hidden;" vertex="1" parent="CJ_4Z4QV0hS_-EtavO5i-11">
          <mxGeometry x="29" width="32" height="30" as="geometry" />
        </mxCell>
        <mxCell id="CJ_4Z4QV0hS_-EtavO5i-14" value="" style="shape=partialRectangle;html=1;whiteSpace=wrap;connectable=0;fillColor=none;top=0;left=0;bottom=0;right=0;overflow=hidden;" vertex="1" parent="CJ_4Z4QV0hS_-EtavO5i-11">
          <mxGeometry x="61" width="29" height="30" as="geometry" />
        </mxCell>
        <mxCell id="CJ_4Z4QV0hS_-EtavO5i-15" value="特征提取" style="text;html=1;strokeColor=none;fillColor=none;align=center;verticalAlign=middle;whiteSpace=wrap;rounded=0;" vertex="1" parent="1">
          <mxGeometry x="120" y="380" width="60" height="20" as="geometry" />
        </mxCell>
        <mxCell id="CJ_4Z4QV0hS_-EtavO5i-34" value="" style="endArrow=none;html=1;exitX=1;exitY=0.5;exitDx=0;exitDy=0;entryX=0;entryY=0.5;entryDx=0;entryDy=0;" edge="1" parent="1" source="CJ_4Z4QV0hS_-EtavO5i-7" target="CJ_4Z4QV0hS_-EtavO5i-35">
          <mxGeometry width="50" height="50" relative="1" as="geometry">
            <mxPoint x="160.99999999999977" y="309.99" as="sourcePoint" />
            <mxPoint x="200" y="285" as="targetPoint" />
          </mxGeometry>
        </mxCell>
        <mxCell id="CJ_4Z4QV0hS_-EtavO5i-35" value="" style="rounded=1;whiteSpace=wrap;html=1;" vertex="1" parent="1">
          <mxGeometry x="200" y="245" width="20" height="70" as="geometry" />
        </mxCell>
        <mxCell id="CJ_4Z4QV0hS_-EtavO5i-36" value="" style="ellipse;whiteSpace=wrap;html=1;aspect=fixed;fillColor=#ffe6cc;strokeColor=#d79b00;" vertex="1" parent="1">
          <mxGeometry x="205" y="260" width="10" height="10" as="geometry" />
        </mxCell>
        <mxCell id="CJ_4Z4QV0hS_-EtavO5i-37" value="" style="ellipse;whiteSpace=wrap;html=1;aspect=fixed;fillColor=#ffe6cc;strokeColor=#d79b00;" vertex="1" parent="1">
          <mxGeometry x="205" y="275" width="10" height="10" as="geometry" />
        </mxCell>
        <mxCell id="CJ_4Z4QV0hS_-EtavO5i-38" value="" style="ellipse;whiteSpace=wrap;html=1;aspect=fixed;fillColor=#ffe6cc;strokeColor=#d79b00;" vertex="1" parent="1">
          <mxGeometry x="205" y="290" width="10" height="10" as="geometry" />
        </mxCell>
        <mxCell id="CJ_4Z4QV0hS_-EtavO5i-42" value="" style="shape=flexArrow;endArrow=classic;html=1;endWidth=12;endSize=7.33;" edge="1" parent="1">
          <mxGeometry width="50" height="50" relative="1" as="geometry">
            <mxPoint x="420" y="279.5" as="sourcePoint" />
            <mxPoint x="460" y="279.5" as="targetPoint" />
          </mxGeometry>
        </mxCell>
        <mxCell id="CJ_4Z4QV0hS_-EtavO5i-43" value="" style="shape=table;html=1;whiteSpace=wrap;startSize=0;container=1;collapsible=0;childLayout=tableLayout;" vertex="1" parent="1">
          <mxGeometry x="260" y="200" width="80" height="80" as="geometry" />
        </mxCell>
        <mxCell id="CJ_4Z4QV0hS_-EtavO5i-44" value="" style="shape=partialRectangle;html=1;whiteSpace=wrap;collapsible=0;dropTarget=0;pointerEvents=0;fillColor=none;top=0;left=0;bottom=0;right=0;points=[[0,0.5],[1,0.5]];portConstraint=eastwest;" vertex="1" parent="CJ_4Z4QV0hS_-EtavO5i-43">
          <mxGeometry width="80" height="27" as="geometry" />
        </mxCell>
        <mxCell id="CJ_4Z4QV0hS_-EtavO5i-45" value="" style="shape=partialRectangle;html=1;whiteSpace=wrap;connectable=0;fillColor=none;top=0;left=0;bottom=0;right=0;overflow=hidden;" vertex="1" parent="CJ_4Z4QV0hS_-EtavO5i-44">
          <mxGeometry width="27" height="27" as="geometry" />
        </mxCell>
        <mxCell id="CJ_4Z4QV0hS_-EtavO5i-46" value="" style="shape=partialRectangle;html=1;whiteSpace=wrap;connectable=0;fillColor=none;top=0;left=0;bottom=0;right=0;overflow=hidden;" vertex="1" parent="CJ_4Z4QV0hS_-EtavO5i-44">
          <mxGeometry x="27" width="26" height="27" as="geometry" />
        </mxCell>
        <mxCell id="CJ_4Z4QV0hS_-EtavO5i-47" value="" style="shape=partialRectangle;html=1;whiteSpace=wrap;connectable=0;fillColor=none;top=0;left=0;bottom=0;right=0;overflow=hidden;" vertex="1" parent="CJ_4Z4QV0hS_-EtavO5i-44">
          <mxGeometry x="53" width="27" height="27" as="geometry" />
        </mxCell>
        <mxCell id="CJ_4Z4QV0hS_-EtavO5i-48" value="" style="shape=partialRectangle;html=1;whiteSpace=wrap;collapsible=0;dropTarget=0;pointerEvents=0;fillColor=none;top=0;left=0;bottom=0;right=0;points=[[0,0.5],[1,0.5]];portConstraint=eastwest;" vertex="1" parent="CJ_4Z4QV0hS_-EtavO5i-43">
          <mxGeometry y="27" width="80" height="26" as="geometry" />
        </mxCell>
        <mxCell id="CJ_4Z4QV0hS_-EtavO5i-49" value="" style="shape=partialRectangle;html=1;whiteSpace=wrap;connectable=0;fillColor=none;top=0;left=0;bottom=0;right=0;overflow=hidden;" vertex="1" parent="CJ_4Z4QV0hS_-EtavO5i-48">
          <mxGeometry width="27" height="26" as="geometry" />
        </mxCell>
        <mxCell id="CJ_4Z4QV0hS_-EtavO5i-50" value="" style="shape=partialRectangle;html=1;whiteSpace=wrap;connectable=0;fillColor=none;top=0;left=0;bottom=0;right=0;overflow=hidden;" vertex="1" parent="CJ_4Z4QV0hS_-EtavO5i-48">
          <mxGeometry x="27" width="26" height="26" as="geometry" />
        </mxCell>
        <mxCell id="CJ_4Z4QV0hS_-EtavO5i-51" value="" style="shape=partialRectangle;html=1;whiteSpace=wrap;connectable=0;fillColor=none;top=0;left=0;bottom=0;right=0;overflow=hidden;" vertex="1" parent="CJ_4Z4QV0hS_-EtavO5i-48">
          <mxGeometry x="53" width="27" height="26" as="geometry" />
        </mxCell>
        <mxCell id="CJ_4Z4QV0hS_-EtavO5i-52" value="" style="shape=partialRectangle;html=1;whiteSpace=wrap;collapsible=0;dropTarget=0;pointerEvents=0;fillColor=none;top=0;left=0;bottom=0;right=0;points=[[0,0.5],[1,0.5]];portConstraint=eastwest;" vertex="1" parent="CJ_4Z4QV0hS_-EtavO5i-43">
          <mxGeometry y="53" width="80" height="27" as="geometry" />
        </mxCell>
        <mxCell id="CJ_4Z4QV0hS_-EtavO5i-53" value="" style="shape=partialRectangle;html=1;whiteSpace=wrap;connectable=0;fillColor=none;top=0;left=0;bottom=0;right=0;overflow=hidden;" vertex="1" parent="CJ_4Z4QV0hS_-EtavO5i-52">
          <mxGeometry width="27" height="27" as="geometry" />
        </mxCell>
        <mxCell id="CJ_4Z4QV0hS_-EtavO5i-54" value="" style="shape=partialRectangle;html=1;whiteSpace=wrap;connectable=0;fillColor=none;top=0;left=0;bottom=0;right=0;overflow=hidden;" vertex="1" parent="CJ_4Z4QV0hS_-EtavO5i-52">
          <mxGeometry x="27" width="26" height="27" as="geometry" />
        </mxCell>
        <mxCell id="CJ_4Z4QV0hS_-EtavO5i-55" value="" style="shape=partialRectangle;html=1;whiteSpace=wrap;connectable=0;fillColor=#ffe6cc;top=0;left=0;bottom=0;right=0;overflow=hidden;strokeColor=#d79b00;" vertex="1" parent="CJ_4Z4QV0hS_-EtavO5i-52">
          <mxGeometry x="53" width="27" height="27" as="geometry" />
        </mxCell>
        <mxCell id="CJ_4Z4QV0hS_-EtavO5i-80" value="" style="shape=table;html=1;whiteSpace=wrap;startSize=0;container=1;collapsible=0;childLayout=tableLayout;" vertex="1" parent="1">
          <mxGeometry x="340" y="200" width="80" height="80" as="geometry" />
        </mxCell>
        <mxCell id="CJ_4Z4QV0hS_-EtavO5i-81" value="" style="shape=partialRectangle;html=1;whiteSpace=wrap;collapsible=0;dropTarget=0;pointerEvents=0;fillColor=none;top=0;left=0;bottom=0;right=0;points=[[0,0.5],[1,0.5]];portConstraint=eastwest;" vertex="1" parent="CJ_4Z4QV0hS_-EtavO5i-80">
          <mxGeometry width="80" height="27" as="geometry" />
        </mxCell>
        <mxCell id="CJ_4Z4QV0hS_-EtavO5i-82" value="" style="shape=partialRectangle;html=1;whiteSpace=wrap;connectable=0;fillColor=none;top=0;left=0;bottom=0;right=0;overflow=hidden;" vertex="1" parent="CJ_4Z4QV0hS_-EtavO5i-81">
          <mxGeometry width="27" height="27" as="geometry" />
        </mxCell>
        <mxCell id="CJ_4Z4QV0hS_-EtavO5i-83" value="" style="shape=partialRectangle;html=1;whiteSpace=wrap;connectable=0;fillColor=none;top=0;left=0;bottom=0;right=0;overflow=hidden;" vertex="1" parent="CJ_4Z4QV0hS_-EtavO5i-81">
          <mxGeometry x="27" width="26" height="27" as="geometry" />
        </mxCell>
        <mxCell id="CJ_4Z4QV0hS_-EtavO5i-84" value="" style="shape=partialRectangle;html=1;whiteSpace=wrap;connectable=0;fillColor=none;top=0;left=0;bottom=0;right=0;overflow=hidden;" vertex="1" parent="CJ_4Z4QV0hS_-EtavO5i-81">
          <mxGeometry x="53" width="27" height="27" as="geometry" />
        </mxCell>
        <mxCell id="CJ_4Z4QV0hS_-EtavO5i-85" value="" style="shape=partialRectangle;html=1;whiteSpace=wrap;collapsible=0;dropTarget=0;pointerEvents=0;fillColor=none;top=0;left=0;bottom=0;right=0;points=[[0,0.5],[1,0.5]];portConstraint=eastwest;" vertex="1" parent="CJ_4Z4QV0hS_-EtavO5i-80">
          <mxGeometry y="27" width="80" height="26" as="geometry" />
        </mxCell>
        <mxCell id="CJ_4Z4QV0hS_-EtavO5i-86" value="" style="shape=partialRectangle;html=1;whiteSpace=wrap;connectable=0;fillColor=none;top=0;left=0;bottom=0;right=0;overflow=hidden;" vertex="1" parent="CJ_4Z4QV0hS_-EtavO5i-85">
          <mxGeometry width="27" height="26" as="geometry" />
        </mxCell>
        <mxCell id="CJ_4Z4QV0hS_-EtavO5i-87" value="" style="shape=partialRectangle;html=1;whiteSpace=wrap;connectable=0;fillColor=none;top=0;left=0;bottom=0;right=0;overflow=hidden;" vertex="1" parent="CJ_4Z4QV0hS_-EtavO5i-85">
          <mxGeometry x="27" width="26" height="26" as="geometry" />
        </mxCell>
        <mxCell id="CJ_4Z4QV0hS_-EtavO5i-88" value="" style="shape=partialRectangle;html=1;whiteSpace=wrap;connectable=0;fillColor=none;top=0;left=0;bottom=0;right=0;overflow=hidden;" vertex="1" parent="CJ_4Z4QV0hS_-EtavO5i-85">
          <mxGeometry x="53" width="27" height="26" as="geometry" />
        </mxCell>
        <mxCell id="CJ_4Z4QV0hS_-EtavO5i-89" value="" style="shape=partialRectangle;html=1;whiteSpace=wrap;collapsible=0;dropTarget=0;pointerEvents=0;fillColor=none;top=0;left=0;bottom=0;right=0;points=[[0,0.5],[1,0.5]];portConstraint=eastwest;" vertex="1" parent="CJ_4Z4QV0hS_-EtavO5i-80">
          <mxGeometry y="53" width="80" height="27" as="geometry" />
        </mxCell>
        <mxCell id="CJ_4Z4QV0hS_-EtavO5i-90" value="" style="shape=partialRectangle;html=1;whiteSpace=wrap;connectable=0;fillColor=#ffe6cc;top=0;left=0;bottom=0;right=0;overflow=hidden;strokeColor=#d79b00;" vertex="1" parent="CJ_4Z4QV0hS_-EtavO5i-89">
          <mxGeometry width="27" height="27" as="geometry" />
        </mxCell>
        <mxCell id="CJ_4Z4QV0hS_-EtavO5i-91" value="" style="shape=partialRectangle;html=1;whiteSpace=wrap;connectable=0;fillColor=none;top=0;left=0;bottom=0;right=0;overflow=hidden;" vertex="1" parent="CJ_4Z4QV0hS_-EtavO5i-89">
          <mxGeometry x="27" width="26" height="27" as="geometry" />
        </mxCell>
        <mxCell id="CJ_4Z4QV0hS_-EtavO5i-92" value="" style="shape=partialRectangle;html=1;whiteSpace=wrap;connectable=0;fillColor=none;top=0;left=0;bottom=0;right=0;overflow=hidden;" vertex="1" parent="CJ_4Z4QV0hS_-EtavO5i-89">
          <mxGeometry x="53" width="27" height="27" as="geometry" />
        </mxCell>
        <mxCell id="CJ_4Z4QV0hS_-EtavO5i-93" value="" style="shape=table;html=1;whiteSpace=wrap;startSize=0;container=1;collapsible=0;childLayout=tableLayout;" vertex="1" parent="1">
          <mxGeometry x="260" y="280" width="80" height="80" as="geometry" />
        </mxCell>
        <mxCell id="CJ_4Z4QV0hS_-EtavO5i-94" value="" style="shape=partialRectangle;html=1;whiteSpace=wrap;collapsible=0;dropTarget=0;pointerEvents=0;fillColor=none;top=0;left=0;bottom=0;right=0;points=[[0,0.5],[1,0.5]];portConstraint=eastwest;" vertex="1" parent="CJ_4Z4QV0hS_-EtavO5i-93">
          <mxGeometry width="80" height="27" as="geometry" />
        </mxCell>
        <mxCell id="CJ_4Z4QV0hS_-EtavO5i-95" value="" style="shape=partialRectangle;html=1;whiteSpace=wrap;connectable=0;fillColor=none;top=0;left=0;bottom=0;right=0;overflow=hidden;" vertex="1" parent="CJ_4Z4QV0hS_-EtavO5i-94">
          <mxGeometry width="27" height="27" as="geometry" />
        </mxCell>
        <mxCell id="CJ_4Z4QV0hS_-EtavO5i-96" value="" style="shape=partialRectangle;html=1;whiteSpace=wrap;connectable=0;fillColor=none;top=0;left=0;bottom=0;right=0;overflow=hidden;" vertex="1" parent="CJ_4Z4QV0hS_-EtavO5i-94">
          <mxGeometry x="27" width="26" height="27" as="geometry" />
        </mxCell>
        <mxCell id="CJ_4Z4QV0hS_-EtavO5i-97" value="" style="shape=partialRectangle;html=1;whiteSpace=wrap;connectable=0;fillColor=#ffe6cc;top=0;left=0;bottom=0;right=0;overflow=hidden;strokeColor=#d79b00;" vertex="1" parent="CJ_4Z4QV0hS_-EtavO5i-94">
          <mxGeometry x="53" width="27" height="27" as="geometry" />
        </mxCell>
        <mxCell id="CJ_4Z4QV0hS_-EtavO5i-98" value="" style="shape=partialRectangle;html=1;whiteSpace=wrap;collapsible=0;dropTarget=0;pointerEvents=0;fillColor=none;top=0;left=0;bottom=0;right=0;points=[[0,0.5],[1,0.5]];portConstraint=eastwest;" vertex="1" parent="CJ_4Z4QV0hS_-EtavO5i-93">
          <mxGeometry y="27" width="80" height="26" as="geometry" />
        </mxCell>
        <mxCell id="CJ_4Z4QV0hS_-EtavO5i-99" value="" style="shape=partialRectangle;html=1;whiteSpace=wrap;connectable=0;fillColor=none;top=0;left=0;bottom=0;right=0;overflow=hidden;" vertex="1" parent="CJ_4Z4QV0hS_-EtavO5i-98">
          <mxGeometry width="27" height="26" as="geometry" />
        </mxCell>
        <mxCell id="CJ_4Z4QV0hS_-EtavO5i-100" value="" style="shape=partialRectangle;html=1;whiteSpace=wrap;connectable=0;fillColor=none;top=0;left=0;bottom=0;right=0;overflow=hidden;" vertex="1" parent="CJ_4Z4QV0hS_-EtavO5i-98">
          <mxGeometry x="27" width="26" height="26" as="geometry" />
        </mxCell>
        <mxCell id="CJ_4Z4QV0hS_-EtavO5i-101" value="" style="shape=partialRectangle;html=1;whiteSpace=wrap;connectable=0;fillColor=none;top=0;left=0;bottom=0;right=0;overflow=hidden;" vertex="1" parent="CJ_4Z4QV0hS_-EtavO5i-98">
          <mxGeometry x="53" width="27" height="26" as="geometry" />
        </mxCell>
        <mxCell id="CJ_4Z4QV0hS_-EtavO5i-102" value="" style="shape=partialRectangle;html=1;whiteSpace=wrap;collapsible=0;dropTarget=0;pointerEvents=0;fillColor=none;top=0;left=0;bottom=0;right=0;points=[[0,0.5],[1,0.5]];portConstraint=eastwest;" vertex="1" parent="CJ_4Z4QV0hS_-EtavO5i-93">
          <mxGeometry y="53" width="80" height="27" as="geometry" />
        </mxCell>
        <mxCell id="CJ_4Z4QV0hS_-EtavO5i-103" value="" style="shape=partialRectangle;html=1;whiteSpace=wrap;connectable=0;fillColor=none;top=0;left=0;bottom=0;right=0;overflow=hidden;" vertex="1" parent="CJ_4Z4QV0hS_-EtavO5i-102">
          <mxGeometry width="27" height="27" as="geometry" />
        </mxCell>
        <mxCell id="CJ_4Z4QV0hS_-EtavO5i-104" value="" style="shape=partialRectangle;html=1;whiteSpace=wrap;connectable=0;fillColor=none;top=0;left=0;bottom=0;right=0;overflow=hidden;" vertex="1" parent="CJ_4Z4QV0hS_-EtavO5i-102">
          <mxGeometry x="27" width="26" height="27" as="geometry" />
        </mxCell>
        <mxCell id="CJ_4Z4QV0hS_-EtavO5i-105" value="" style="shape=partialRectangle;html=1;whiteSpace=wrap;connectable=0;fillColor=none;top=0;left=0;bottom=0;right=0;overflow=hidden;" vertex="1" parent="CJ_4Z4QV0hS_-EtavO5i-102">
          <mxGeometry x="53" width="27" height="27" as="geometry" />
        </mxCell>
        <mxCell id="CJ_4Z4QV0hS_-EtavO5i-106" value="" style="shape=table;html=1;whiteSpace=wrap;startSize=0;container=1;collapsible=0;childLayout=tableLayout;" vertex="1" parent="1">
          <mxGeometry x="340" y="280" width="80" height="80" as="geometry" />
        </mxCell>
        <mxCell id="CJ_4Z4QV0hS_-EtavO5i-107" value="" style="shape=partialRectangle;html=1;whiteSpace=wrap;collapsible=0;dropTarget=0;pointerEvents=0;fillColor=none;top=0;left=0;bottom=0;right=0;points=[[0,0.5],[1,0.5]];portConstraint=eastwest;" vertex="1" parent="CJ_4Z4QV0hS_-EtavO5i-106">
          <mxGeometry width="80" height="27" as="geometry" />
        </mxCell>
        <mxCell id="CJ_4Z4QV0hS_-EtavO5i-108" value="" style="shape=partialRectangle;html=1;whiteSpace=wrap;connectable=0;fillColor=#ffe6cc;top=0;left=0;bottom=0;right=0;overflow=hidden;strokeColor=#d79b00;" vertex="1" parent="CJ_4Z4QV0hS_-EtavO5i-107">
          <mxGeometry width="27" height="27" as="geometry" />
        </mxCell>
        <mxCell id="CJ_4Z4QV0hS_-EtavO5i-109" value="" style="shape=partialRectangle;html=1;whiteSpace=wrap;connectable=0;fillColor=none;top=0;left=0;bottom=0;right=0;overflow=hidden;" vertex="1" parent="CJ_4Z4QV0hS_-EtavO5i-107">
          <mxGeometry x="27" width="26" height="27" as="geometry" />
        </mxCell>
        <mxCell id="CJ_4Z4QV0hS_-EtavO5i-110" value="" style="shape=partialRectangle;html=1;whiteSpace=wrap;connectable=0;fillColor=none;top=0;left=0;bottom=0;right=0;overflow=hidden;" vertex="1" parent="CJ_4Z4QV0hS_-EtavO5i-107">
          <mxGeometry x="53" width="27" height="27" as="geometry" />
        </mxCell>
        <mxCell id="CJ_4Z4QV0hS_-EtavO5i-111" value="" style="shape=partialRectangle;html=1;whiteSpace=wrap;collapsible=0;dropTarget=0;pointerEvents=0;fillColor=none;top=0;left=0;bottom=0;right=0;points=[[0,0.5],[1,0.5]];portConstraint=eastwest;" vertex="1" parent="CJ_4Z4QV0hS_-EtavO5i-106">
          <mxGeometry y="27" width="80" height="26" as="geometry" />
        </mxCell>
        <mxCell id="CJ_4Z4QV0hS_-EtavO5i-112" value="" style="shape=partialRectangle;html=1;whiteSpace=wrap;connectable=0;fillColor=none;top=0;left=0;bottom=0;right=0;overflow=hidden;" vertex="1" parent="CJ_4Z4QV0hS_-EtavO5i-111">
          <mxGeometry width="27" height="26" as="geometry" />
        </mxCell>
        <mxCell id="CJ_4Z4QV0hS_-EtavO5i-113" value="" style="shape=partialRectangle;html=1;whiteSpace=wrap;connectable=0;fillColor=none;top=0;left=0;bottom=0;right=0;overflow=hidden;" vertex="1" parent="CJ_4Z4QV0hS_-EtavO5i-111">
          <mxGeometry x="27" width="26" height="26" as="geometry" />
        </mxCell>
        <mxCell id="CJ_4Z4QV0hS_-EtavO5i-114" value="" style="shape=partialRectangle;html=1;whiteSpace=wrap;connectable=0;fillColor=none;top=0;left=0;bottom=0;right=0;overflow=hidden;" vertex="1" parent="CJ_4Z4QV0hS_-EtavO5i-111">
          <mxGeometry x="53" width="27" height="26" as="geometry" />
        </mxCell>
        <mxCell id="CJ_4Z4QV0hS_-EtavO5i-115" value="" style="shape=partialRectangle;html=1;whiteSpace=wrap;collapsible=0;dropTarget=0;pointerEvents=0;fillColor=none;top=0;left=0;bottom=0;right=0;points=[[0,0.5],[1,0.5]];portConstraint=eastwest;" vertex="1" parent="CJ_4Z4QV0hS_-EtavO5i-106">
          <mxGeometry y="53" width="80" height="27" as="geometry" />
        </mxCell>
        <mxCell id="CJ_4Z4QV0hS_-EtavO5i-116" value="" style="shape=partialRectangle;html=1;whiteSpace=wrap;connectable=0;fillColor=none;top=0;left=0;bottom=0;right=0;overflow=hidden;" vertex="1" parent="CJ_4Z4QV0hS_-EtavO5i-115">
          <mxGeometry width="27" height="27" as="geometry" />
        </mxCell>
        <mxCell id="CJ_4Z4QV0hS_-EtavO5i-117" value="" style="shape=partialRectangle;html=1;whiteSpace=wrap;connectable=0;fillColor=none;top=0;left=0;bottom=0;right=0;overflow=hidden;" vertex="1" parent="CJ_4Z4QV0hS_-EtavO5i-115">
          <mxGeometry x="27" width="26" height="27" as="geometry" />
        </mxCell>
        <mxCell id="CJ_4Z4QV0hS_-EtavO5i-118" value="" style="shape=partialRectangle;html=1;whiteSpace=wrap;connectable=0;fillColor=none;top=0;left=0;bottom=0;right=0;overflow=hidden;" vertex="1" parent="CJ_4Z4QV0hS_-EtavO5i-115">
          <mxGeometry x="53" width="27" height="27" as="geometry" />
        </mxCell>
        <mxCell id="CJ_4Z4QV0hS_-EtavO5i-119" value="多尺度制图" style="text;html=1;strokeColor=none;fillColor=none;align=center;verticalAlign=middle;whiteSpace=wrap;rounded=0;" vertex="1" parent="1">
          <mxGeometry x="300" y="380" width="80" height="20" as="geometry" />
        </mxCell>
        <mxCell id="CJ_4Z4QV0hS_-EtavO5i-126" value="" style="shape=table;html=1;whiteSpace=wrap;startSize=0;container=1;collapsible=0;childLayout=tableLayout;" vertex="1" parent="1">
          <mxGeometry x="500" y="160" width="80" height="80" as="geometry" />
        </mxCell>
        <mxCell id="CJ_4Z4QV0hS_-EtavO5i-127" value="" style="shape=partialRectangle;html=1;whiteSpace=wrap;collapsible=0;dropTarget=0;pointerEvents=0;fillColor=none;top=0;left=0;bottom=0;right=0;points=[[0,0.5],[1,0.5]];portConstraint=eastwest;" vertex="1" parent="CJ_4Z4QV0hS_-EtavO5i-126">
          <mxGeometry width="80" height="27" as="geometry" />
        </mxCell>
        <mxCell id="CJ_4Z4QV0hS_-EtavO5i-128" value="" style="shape=partialRectangle;html=1;whiteSpace=wrap;connectable=0;fillColor=none;top=0;left=0;bottom=0;right=0;overflow=hidden;" vertex="1" parent="CJ_4Z4QV0hS_-EtavO5i-127">
          <mxGeometry width="27" height="27" as="geometry" />
        </mxCell>
        <mxCell id="CJ_4Z4QV0hS_-EtavO5i-129" value="" style="shape=partialRectangle;html=1;whiteSpace=wrap;connectable=0;fillColor=none;top=0;left=0;bottom=0;right=0;overflow=hidden;" vertex="1" parent="CJ_4Z4QV0hS_-EtavO5i-127">
          <mxGeometry x="27" width="26" height="27" as="geometry" />
        </mxCell>
        <mxCell id="CJ_4Z4QV0hS_-EtavO5i-130" value="" style="shape=partialRectangle;html=1;whiteSpace=wrap;connectable=0;fillColor=none;top=0;left=0;bottom=0;right=0;overflow=hidden;" vertex="1" parent="CJ_4Z4QV0hS_-EtavO5i-127">
          <mxGeometry x="53" width="27" height="27" as="geometry" />
        </mxCell>
        <mxCell id="CJ_4Z4QV0hS_-EtavO5i-131" value="" style="shape=partialRectangle;html=1;whiteSpace=wrap;collapsible=0;dropTarget=0;pointerEvents=0;fillColor=none;top=0;left=0;bottom=0;right=0;points=[[0,0.5],[1,0.5]];portConstraint=eastwest;" vertex="1" parent="CJ_4Z4QV0hS_-EtavO5i-126">
          <mxGeometry y="27" width="80" height="26" as="geometry" />
        </mxCell>
        <mxCell id="CJ_4Z4QV0hS_-EtavO5i-132" value="" style="shape=partialRectangle;html=1;whiteSpace=wrap;connectable=0;fillColor=none;top=0;left=0;bottom=0;right=0;overflow=hidden;" vertex="1" parent="CJ_4Z4QV0hS_-EtavO5i-131">
          <mxGeometry width="27" height="26" as="geometry" />
        </mxCell>
        <mxCell id="CJ_4Z4QV0hS_-EtavO5i-133" value="" style="shape=partialRectangle;html=1;whiteSpace=wrap;connectable=0;fillColor=none;top=0;left=0;bottom=0;right=0;overflow=hidden;" vertex="1" parent="CJ_4Z4QV0hS_-EtavO5i-131">
          <mxGeometry x="27" width="26" height="26" as="geometry" />
        </mxCell>
        <mxCell id="CJ_4Z4QV0hS_-EtavO5i-134" value="" style="shape=partialRectangle;html=1;whiteSpace=wrap;connectable=0;fillColor=none;top=0;left=0;bottom=0;right=0;overflow=hidden;" vertex="1" parent="CJ_4Z4QV0hS_-EtavO5i-131">
          <mxGeometry x="53" width="27" height="26" as="geometry" />
        </mxCell>
        <mxCell id="CJ_4Z4QV0hS_-EtavO5i-135" value="" style="shape=partialRectangle;html=1;whiteSpace=wrap;collapsible=0;dropTarget=0;pointerEvents=0;fillColor=none;top=0;left=0;bottom=0;right=0;points=[[0,0.5],[1,0.5]];portConstraint=eastwest;" vertex="1" parent="CJ_4Z4QV0hS_-EtavO5i-126">
          <mxGeometry y="53" width="80" height="27" as="geometry" />
        </mxCell>
        <mxCell id="CJ_4Z4QV0hS_-EtavO5i-136" value="" style="shape=partialRectangle;html=1;whiteSpace=wrap;connectable=0;fillColor=none;top=0;left=0;bottom=0;right=0;overflow=hidden;" vertex="1" parent="CJ_4Z4QV0hS_-EtavO5i-135">
          <mxGeometry width="27" height="27" as="geometry" />
        </mxCell>
        <mxCell id="CJ_4Z4QV0hS_-EtavO5i-137" value="" style="shape=partialRectangle;html=1;whiteSpace=wrap;connectable=0;fillColor=none;top=0;left=0;bottom=0;right=0;overflow=hidden;" vertex="1" parent="CJ_4Z4QV0hS_-EtavO5i-135">
          <mxGeometry x="27" width="26" height="27" as="geometry" />
        </mxCell>
        <mxCell id="CJ_4Z4QV0hS_-EtavO5i-138" value="" style="shape=partialRectangle;html=1;whiteSpace=wrap;connectable=0;fillColor=#ffe6cc;top=0;left=0;bottom=0;right=0;overflow=hidden;strokeColor=#d79b00;" vertex="1" parent="CJ_4Z4QV0hS_-EtavO5i-135">
          <mxGeometry x="53" width="27" height="27" as="geometry" />
        </mxCell>
        <mxCell id="CJ_4Z4QV0hS_-EtavO5i-139" value="" style="shape=table;html=1;whiteSpace=wrap;startSize=0;container=1;collapsible=0;childLayout=tableLayout;" vertex="1" parent="1">
          <mxGeometry x="580" y="160" width="80" height="160" as="geometry" />
        </mxCell>
        <mxCell id="CJ_4Z4QV0hS_-EtavO5i-140" value="" style="shape=partialRectangle;html=1;whiteSpace=wrap;collapsible=0;dropTarget=0;pointerEvents=0;fillColor=none;top=0;left=0;bottom=0;right=0;points=[[0,0.5],[1,0.5]];portConstraint=eastwest;" vertex="1" parent="CJ_4Z4QV0hS_-EtavO5i-139">
          <mxGeometry width="80" height="27" as="geometry" />
        </mxCell>
        <mxCell id="CJ_4Z4QV0hS_-EtavO5i-141" value="" style="shape=partialRectangle;html=1;whiteSpace=wrap;connectable=0;fillColor=none;top=0;left=0;bottom=0;right=0;overflow=hidden;" vertex="1" parent="CJ_4Z4QV0hS_-EtavO5i-140">
          <mxGeometry width="27" height="27" as="geometry" />
        </mxCell>
        <mxCell id="CJ_4Z4QV0hS_-EtavO5i-142" value="" style="shape=partialRectangle;html=1;whiteSpace=wrap;connectable=0;fillColor=none;top=0;left=0;bottom=0;right=0;overflow=hidden;" vertex="1" parent="CJ_4Z4QV0hS_-EtavO5i-140">
          <mxGeometry x="27" width="26" height="27" as="geometry" />
        </mxCell>
        <mxCell id="CJ_4Z4QV0hS_-EtavO5i-143" value="" style="shape=partialRectangle;html=1;whiteSpace=wrap;connectable=0;fillColor=none;top=0;left=0;bottom=0;right=0;overflow=hidden;" vertex="1" parent="CJ_4Z4QV0hS_-EtavO5i-140">
          <mxGeometry x="53" width="27" height="27" as="geometry" />
        </mxCell>
        <mxCell id="CJ_4Z4QV0hS_-EtavO5i-144" value="" style="shape=partialRectangle;html=1;whiteSpace=wrap;collapsible=0;dropTarget=0;pointerEvents=0;fillColor=none;top=0;left=0;bottom=0;right=0;points=[[0,0.5],[1,0.5]];portConstraint=eastwest;" vertex="1" parent="CJ_4Z4QV0hS_-EtavO5i-139">
          <mxGeometry y="27" width="80" height="26" as="geometry" />
        </mxCell>
        <mxCell id="CJ_4Z4QV0hS_-EtavO5i-145" value="" style="shape=partialRectangle;html=1;whiteSpace=wrap;connectable=0;fillColor=none;top=0;left=0;bottom=0;right=0;overflow=hidden;" vertex="1" parent="CJ_4Z4QV0hS_-EtavO5i-144">
          <mxGeometry width="27" height="26" as="geometry" />
        </mxCell>
        <mxCell id="CJ_4Z4QV0hS_-EtavO5i-146" value="" style="shape=partialRectangle;html=1;whiteSpace=wrap;connectable=0;fillColor=none;top=0;left=0;bottom=0;right=0;overflow=hidden;" vertex="1" parent="CJ_4Z4QV0hS_-EtavO5i-144">
          <mxGeometry x="27" width="26" height="26" as="geometry" />
        </mxCell>
        <mxCell id="CJ_4Z4QV0hS_-EtavO5i-147" value="" style="shape=partialRectangle;html=1;whiteSpace=wrap;connectable=0;fillColor=none;top=0;left=0;bottom=0;right=0;overflow=hidden;" vertex="1" parent="CJ_4Z4QV0hS_-EtavO5i-144">
          <mxGeometry x="53" width="27" height="26" as="geometry" />
        </mxCell>
        <mxCell id="CJ_4Z4QV0hS_-EtavO5i-148" value="" style="shape=partialRectangle;html=1;whiteSpace=wrap;collapsible=0;dropTarget=0;pointerEvents=0;fillColor=none;top=0;left=0;bottom=0;right=0;points=[[0,0.5],[1,0.5]];portConstraint=eastwest;" vertex="1" parent="CJ_4Z4QV0hS_-EtavO5i-139">
          <mxGeometry y="53" width="80" height="27" as="geometry" />
        </mxCell>
        <mxCell id="CJ_4Z4QV0hS_-EtavO5i-149" value="" style="shape=partialRectangle;html=1;whiteSpace=wrap;connectable=0;fillColor=#ffe6cc;top=0;left=0;bottom=0;right=0;overflow=hidden;strokeColor=#d79b00;" vertex="1" parent="CJ_4Z4QV0hS_-EtavO5i-148">
          <mxGeometry width="27" height="27" as="geometry" />
        </mxCell>
        <mxCell id="CJ_4Z4QV0hS_-EtavO5i-150" value="" style="shape=partialRectangle;html=1;whiteSpace=wrap;connectable=0;fillColor=none;top=0;left=0;bottom=0;right=0;overflow=hidden;" vertex="1" parent="CJ_4Z4QV0hS_-EtavO5i-148">
          <mxGeometry x="27" width="26" height="27" as="geometry" />
        </mxCell>
        <mxCell id="CJ_4Z4QV0hS_-EtavO5i-151" value="" style="shape=partialRectangle;html=1;whiteSpace=wrap;connectable=0;fillColor=none;top=0;left=0;bottom=0;right=0;overflow=hidden;" vertex="1" parent="CJ_4Z4QV0hS_-EtavO5i-148">
          <mxGeometry x="53" width="27" height="27" as="geometry" />
        </mxCell>
        <mxCell id="CJ_4Z4QV0hS_-EtavO5i-166" value="" style="shape=partialRectangle;html=1;whiteSpace=wrap;collapsible=0;dropTarget=0;pointerEvents=0;fillColor=none;top=0;left=0;bottom=0;right=0;points=[[0,0.5],[1,0.5]];portConstraint=eastwest;" vertex="1" parent="CJ_4Z4QV0hS_-EtavO5i-139">
          <mxGeometry y="80" width="80" height="27" as="geometry" />
        </mxCell>
        <mxCell id="CJ_4Z4QV0hS_-EtavO5i-167" value="" style="shape=partialRectangle;html=1;whiteSpace=wrap;connectable=0;fillColor=#ffe6cc;top=0;left=0;bottom=0;right=0;overflow=hidden;strokeColor=#d79b00;" vertex="1" parent="CJ_4Z4QV0hS_-EtavO5i-166">
          <mxGeometry width="27" height="27" as="geometry" />
        </mxCell>
        <mxCell id="CJ_4Z4QV0hS_-EtavO5i-168" value="" style="shape=partialRectangle;html=1;whiteSpace=wrap;connectable=0;fillColor=none;top=0;left=0;bottom=0;right=0;overflow=hidden;" vertex="1" parent="CJ_4Z4QV0hS_-EtavO5i-166">
          <mxGeometry x="27" width="26" height="27" as="geometry" />
        </mxCell>
        <mxCell id="CJ_4Z4QV0hS_-EtavO5i-169" value="" style="shape=partialRectangle;html=1;whiteSpace=wrap;connectable=0;fillColor=none;top=0;left=0;bottom=0;right=0;overflow=hidden;" vertex="1" parent="CJ_4Z4QV0hS_-EtavO5i-166">
          <mxGeometry x="53" width="27" height="27" as="geometry" />
        </mxCell>
        <mxCell id="CJ_4Z4QV0hS_-EtavO5i-170" value="" style="shape=partialRectangle;html=1;whiteSpace=wrap;collapsible=0;dropTarget=0;pointerEvents=0;fillColor=none;top=0;left=0;bottom=0;right=0;points=[[0,0.5],[1,0.5]];portConstraint=eastwest;" vertex="1" parent="CJ_4Z4QV0hS_-EtavO5i-139">
          <mxGeometry y="107" width="80" height="26" as="geometry" />
        </mxCell>
        <mxCell id="CJ_4Z4QV0hS_-EtavO5i-171" value="" style="shape=partialRectangle;html=1;whiteSpace=wrap;connectable=0;fillColor=none;top=0;left=0;bottom=0;right=0;overflow=hidden;" vertex="1" parent="CJ_4Z4QV0hS_-EtavO5i-170">
          <mxGeometry width="27" height="26" as="geometry" />
        </mxCell>
        <mxCell id="CJ_4Z4QV0hS_-EtavO5i-172" value="" style="shape=partialRectangle;html=1;whiteSpace=wrap;connectable=0;fillColor=none;top=0;left=0;bottom=0;right=0;overflow=hidden;" vertex="1" parent="CJ_4Z4QV0hS_-EtavO5i-170">
          <mxGeometry x="27" width="26" height="26" as="geometry" />
        </mxCell>
        <mxCell id="CJ_4Z4QV0hS_-EtavO5i-173" value="" style="shape=partialRectangle;html=1;whiteSpace=wrap;connectable=0;fillColor=none;top=0;left=0;bottom=0;right=0;overflow=hidden;" vertex="1" parent="CJ_4Z4QV0hS_-EtavO5i-170">
          <mxGeometry x="53" width="27" height="26" as="geometry" />
        </mxCell>
        <mxCell id="CJ_4Z4QV0hS_-EtavO5i-174" value="" style="shape=partialRectangle;html=1;whiteSpace=wrap;collapsible=0;dropTarget=0;pointerEvents=0;fillColor=none;top=0;left=0;bottom=0;right=0;points=[[0,0.5],[1,0.5]];portConstraint=eastwest;" vertex="1" parent="CJ_4Z4QV0hS_-EtavO5i-139">
          <mxGeometry y="133" width="80" height="27" as="geometry" />
        </mxCell>
        <mxCell id="CJ_4Z4QV0hS_-EtavO5i-175" value="" style="shape=partialRectangle;html=1;whiteSpace=wrap;connectable=0;fillColor=none;top=0;left=0;bottom=0;right=0;overflow=hidden;" vertex="1" parent="CJ_4Z4QV0hS_-EtavO5i-174">
          <mxGeometry width="27" height="27" as="geometry" />
        </mxCell>
        <mxCell id="CJ_4Z4QV0hS_-EtavO5i-176" value="" style="shape=partialRectangle;html=1;whiteSpace=wrap;connectable=0;fillColor=none;top=0;left=0;bottom=0;right=0;overflow=hidden;" vertex="1" parent="CJ_4Z4QV0hS_-EtavO5i-174">
          <mxGeometry x="27" width="26" height="27" as="geometry" />
        </mxCell>
        <mxCell id="CJ_4Z4QV0hS_-EtavO5i-177" value="" style="shape=partialRectangle;html=1;whiteSpace=wrap;connectable=0;fillColor=none;top=0;left=0;bottom=0;right=0;overflow=hidden;" vertex="1" parent="CJ_4Z4QV0hS_-EtavO5i-174">
          <mxGeometry x="53" width="27" height="27" as="geometry" />
        </mxCell>
        <mxCell id="CJ_4Z4QV0hS_-EtavO5i-152" value="" style="shape=table;html=1;whiteSpace=wrap;startSize=0;container=1;collapsible=0;childLayout=tableLayout;" vertex="1" parent="1">
          <mxGeometry x="500" y="240" width="80" height="80" as="geometry" />
        </mxCell>
        <mxCell id="CJ_4Z4QV0hS_-EtavO5i-153" value="" style="shape=partialRectangle;html=1;whiteSpace=wrap;collapsible=0;dropTarget=0;pointerEvents=0;fillColor=none;top=0;left=0;bottom=0;right=0;points=[[0,0.5],[1,0.5]];portConstraint=eastwest;" vertex="1" parent="CJ_4Z4QV0hS_-EtavO5i-152">
          <mxGeometry width="80" height="27" as="geometry" />
        </mxCell>
        <mxCell id="CJ_4Z4QV0hS_-EtavO5i-154" value="" style="shape=partialRectangle;html=1;whiteSpace=wrap;connectable=0;fillColor=none;top=0;left=0;bottom=0;right=0;overflow=hidden;" vertex="1" parent="CJ_4Z4QV0hS_-EtavO5i-153">
          <mxGeometry width="27" height="27" as="geometry" />
        </mxCell>
        <mxCell id="CJ_4Z4QV0hS_-EtavO5i-155" value="" style="shape=partialRectangle;html=1;whiteSpace=wrap;connectable=0;fillColor=none;top=0;left=0;bottom=0;right=0;overflow=hidden;" vertex="1" parent="CJ_4Z4QV0hS_-EtavO5i-153">
          <mxGeometry x="27" width="26" height="27" as="geometry" />
        </mxCell>
        <mxCell id="CJ_4Z4QV0hS_-EtavO5i-156" value="" style="shape=partialRectangle;html=1;whiteSpace=wrap;connectable=0;fillColor=#ffe6cc;top=0;left=0;bottom=0;right=0;overflow=hidden;strokeColor=#d79b00;" vertex="1" parent="CJ_4Z4QV0hS_-EtavO5i-153">
          <mxGeometry x="53" width="27" height="27" as="geometry" />
        </mxCell>
        <mxCell id="CJ_4Z4QV0hS_-EtavO5i-157" value="" style="shape=partialRectangle;html=1;whiteSpace=wrap;collapsible=0;dropTarget=0;pointerEvents=0;fillColor=none;top=0;left=0;bottom=0;right=0;points=[[0,0.5],[1,0.5]];portConstraint=eastwest;" vertex="1" parent="CJ_4Z4QV0hS_-EtavO5i-152">
          <mxGeometry y="27" width="80" height="26" as="geometry" />
        </mxCell>
        <mxCell id="CJ_4Z4QV0hS_-EtavO5i-158" value="" style="shape=partialRectangle;html=1;whiteSpace=wrap;connectable=0;fillColor=none;top=0;left=0;bottom=0;right=0;overflow=hidden;" vertex="1" parent="CJ_4Z4QV0hS_-EtavO5i-157">
          <mxGeometry width="27" height="26" as="geometry" />
        </mxCell>
        <mxCell id="CJ_4Z4QV0hS_-EtavO5i-159" value="" style="shape=partialRectangle;html=1;whiteSpace=wrap;connectable=0;fillColor=none;top=0;left=0;bottom=0;right=0;overflow=hidden;" vertex="1" parent="CJ_4Z4QV0hS_-EtavO5i-157">
          <mxGeometry x="27" width="26" height="26" as="geometry" />
        </mxCell>
        <mxCell id="CJ_4Z4QV0hS_-EtavO5i-160" value="" style="shape=partialRectangle;html=1;whiteSpace=wrap;connectable=0;fillColor=none;top=0;left=0;bottom=0;right=0;overflow=hidden;" vertex="1" parent="CJ_4Z4QV0hS_-EtavO5i-157">
          <mxGeometry x="53" width="27" height="26" as="geometry" />
        </mxCell>
        <mxCell id="CJ_4Z4QV0hS_-EtavO5i-161" value="" style="shape=partialRectangle;html=1;whiteSpace=wrap;collapsible=0;dropTarget=0;pointerEvents=0;fillColor=none;top=0;left=0;bottom=0;right=0;points=[[0,0.5],[1,0.5]];portConstraint=eastwest;" vertex="1" parent="CJ_4Z4QV0hS_-EtavO5i-152">
          <mxGeometry y="53" width="80" height="27" as="geometry" />
        </mxCell>
        <mxCell id="CJ_4Z4QV0hS_-EtavO5i-162" value="" style="shape=partialRectangle;html=1;whiteSpace=wrap;connectable=0;fillColor=none;top=0;left=0;bottom=0;right=0;overflow=hidden;" vertex="1" parent="CJ_4Z4QV0hS_-EtavO5i-161">
          <mxGeometry width="27" height="27" as="geometry" />
        </mxCell>
        <mxCell id="CJ_4Z4QV0hS_-EtavO5i-163" value="" style="shape=partialRectangle;html=1;whiteSpace=wrap;connectable=0;fillColor=none;top=0;left=0;bottom=0;right=0;overflow=hidden;" vertex="1" parent="CJ_4Z4QV0hS_-EtavO5i-161">
          <mxGeometry x="27" width="26" height="27" as="geometry" />
        </mxCell>
        <mxCell id="CJ_4Z4QV0hS_-EtavO5i-164" value="" style="shape=partialRectangle;html=1;whiteSpace=wrap;connectable=0;fillColor=none;top=0;left=0;bottom=0;right=0;overflow=hidden;" vertex="1" parent="CJ_4Z4QV0hS_-EtavO5i-161">
          <mxGeometry x="53" width="27" height="27" as="geometry" />
        </mxCell>
        <mxCell id="CJ_4Z4QV0hS_-EtavO5i-178" value="多尺度制图" style="text;html=1;strokeColor=none;fillColor=none;align=center;verticalAlign=middle;whiteSpace=wrap;rounded=0;" vertex="1" parent="1">
          <mxGeometry x="520" y="190" width="80" height="20" as="geometry" />
        </mxCell>
        <mxCell id="CJ_4Z4QV0hS_-EtavO5i-179" value="" style="shape=table;html=1;whiteSpace=wrap;startSize=0;container=1;collapsible=0;childLayout=tableLayout;" vertex="1" parent="1">
          <mxGeometry x="480" y="180" width="80" height="80" as="geometry" />
        </mxCell>
        <mxCell id="CJ_4Z4QV0hS_-EtavO5i-180" value="" style="shape=partialRectangle;html=1;whiteSpace=wrap;collapsible=0;dropTarget=0;pointerEvents=0;fillColor=none;top=0;left=0;bottom=0;right=0;points=[[0,0.5],[1,0.5]];portConstraint=eastwest;" vertex="1" parent="CJ_4Z4QV0hS_-EtavO5i-179">
          <mxGeometry width="80" height="27" as="geometry" />
        </mxCell>
        <mxCell id="CJ_4Z4QV0hS_-EtavO5i-181" value="" style="shape=partialRectangle;html=1;whiteSpace=wrap;connectable=0;fillColor=none;top=0;left=0;bottom=0;right=0;overflow=hidden;" vertex="1" parent="CJ_4Z4QV0hS_-EtavO5i-180">
          <mxGeometry width="27" height="27" as="geometry" />
        </mxCell>
        <mxCell id="CJ_4Z4QV0hS_-EtavO5i-182" value="" style="shape=partialRectangle;html=1;whiteSpace=wrap;connectable=0;fillColor=none;top=0;left=0;bottom=0;right=0;overflow=hidden;" vertex="1" parent="CJ_4Z4QV0hS_-EtavO5i-180">
          <mxGeometry x="27" width="26" height="27" as="geometry" />
        </mxCell>
        <mxCell id="CJ_4Z4QV0hS_-EtavO5i-183" value="" style="shape=partialRectangle;html=1;whiteSpace=wrap;connectable=0;fillColor=none;top=0;left=0;bottom=0;right=0;overflow=hidden;" vertex="1" parent="CJ_4Z4QV0hS_-EtavO5i-180">
          <mxGeometry x="53" width="27" height="27" as="geometry" />
        </mxCell>
        <mxCell id="CJ_4Z4QV0hS_-EtavO5i-184" value="" style="shape=partialRectangle;html=1;whiteSpace=wrap;collapsible=0;dropTarget=0;pointerEvents=0;fillColor=none;top=0;left=0;bottom=0;right=0;points=[[0,0.5],[1,0.5]];portConstraint=eastwest;" vertex="1" parent="CJ_4Z4QV0hS_-EtavO5i-179">
          <mxGeometry y="27" width="80" height="26" as="geometry" />
        </mxCell>
        <mxCell id="CJ_4Z4QV0hS_-EtavO5i-185" value="" style="shape=partialRectangle;html=1;whiteSpace=wrap;connectable=0;fillColor=none;top=0;left=0;bottom=0;right=0;overflow=hidden;" vertex="1" parent="CJ_4Z4QV0hS_-EtavO5i-184">
          <mxGeometry width="27" height="26" as="geometry" />
        </mxCell>
        <mxCell id="CJ_4Z4QV0hS_-EtavO5i-186" value="" style="shape=partialRectangle;html=1;whiteSpace=wrap;connectable=0;fillColor=none;top=0;left=0;bottom=0;right=0;overflow=hidden;" vertex="1" parent="CJ_4Z4QV0hS_-EtavO5i-184">
          <mxGeometry x="27" width="26" height="26" as="geometry" />
        </mxCell>
        <mxCell id="CJ_4Z4QV0hS_-EtavO5i-187" value="" style="shape=partialRectangle;html=1;whiteSpace=wrap;connectable=0;fillColor=none;top=0;left=0;bottom=0;right=0;overflow=hidden;" vertex="1" parent="CJ_4Z4QV0hS_-EtavO5i-184">
          <mxGeometry x="53" width="27" height="26" as="geometry" />
        </mxCell>
        <mxCell id="CJ_4Z4QV0hS_-EtavO5i-188" value="" style="shape=partialRectangle;html=1;whiteSpace=wrap;collapsible=0;dropTarget=0;pointerEvents=0;fillColor=none;top=0;left=0;bottom=0;right=0;points=[[0,0.5],[1,0.5]];portConstraint=eastwest;" vertex="1" parent="CJ_4Z4QV0hS_-EtavO5i-179">
          <mxGeometry y="53" width="80" height="27" as="geometry" />
        </mxCell>
        <mxCell id="CJ_4Z4QV0hS_-EtavO5i-189" value="" style="shape=partialRectangle;html=1;whiteSpace=wrap;connectable=0;fillColor=none;top=0;left=0;bottom=0;right=0;overflow=hidden;" vertex="1" parent="CJ_4Z4QV0hS_-EtavO5i-188">
          <mxGeometry width="27" height="27" as="geometry" />
        </mxCell>
        <mxCell id="CJ_4Z4QV0hS_-EtavO5i-190" value="" style="shape=partialRectangle;html=1;whiteSpace=wrap;connectable=0;fillColor=none;top=0;left=0;bottom=0;right=0;overflow=hidden;" vertex="1" parent="CJ_4Z4QV0hS_-EtavO5i-188">
          <mxGeometry x="27" width="26" height="27" as="geometry" />
        </mxCell>
        <mxCell id="CJ_4Z4QV0hS_-EtavO5i-191" value="" style="shape=partialRectangle;html=1;whiteSpace=wrap;connectable=0;fillColor=#ffe6cc;top=0;left=0;bottom=0;right=0;overflow=hidden;strokeColor=#d79b00;" vertex="1" parent="CJ_4Z4QV0hS_-EtavO5i-188">
          <mxGeometry x="53" width="27" height="27" as="geometry" />
        </mxCell>
        <mxCell id="CJ_4Z4QV0hS_-EtavO5i-192" value="" style="shape=table;html=1;whiteSpace=wrap;startSize=0;container=1;collapsible=0;childLayout=tableLayout;" vertex="1" parent="1">
          <mxGeometry x="560" y="180" width="80" height="80" as="geometry" />
        </mxCell>
        <mxCell id="CJ_4Z4QV0hS_-EtavO5i-193" value="" style="shape=partialRectangle;html=1;whiteSpace=wrap;collapsible=0;dropTarget=0;pointerEvents=0;fillColor=none;top=0;left=0;bottom=0;right=0;points=[[0,0.5],[1,0.5]];portConstraint=eastwest;" vertex="1" parent="CJ_4Z4QV0hS_-EtavO5i-192">
          <mxGeometry width="80" height="27" as="geometry" />
        </mxCell>
        <mxCell id="CJ_4Z4QV0hS_-EtavO5i-194" value="" style="shape=partialRectangle;html=1;whiteSpace=wrap;connectable=0;fillColor=none;top=0;left=0;bottom=0;right=0;overflow=hidden;" vertex="1" parent="CJ_4Z4QV0hS_-EtavO5i-193">
          <mxGeometry width="27" height="27" as="geometry" />
        </mxCell>
        <mxCell id="CJ_4Z4QV0hS_-EtavO5i-195" value="" style="shape=partialRectangle;html=1;whiteSpace=wrap;connectable=0;fillColor=none;top=0;left=0;bottom=0;right=0;overflow=hidden;" vertex="1" parent="CJ_4Z4QV0hS_-EtavO5i-193">
          <mxGeometry x="27" width="26" height="27" as="geometry" />
        </mxCell>
        <mxCell id="CJ_4Z4QV0hS_-EtavO5i-196" value="" style="shape=partialRectangle;html=1;whiteSpace=wrap;connectable=0;fillColor=none;top=0;left=0;bottom=0;right=0;overflow=hidden;" vertex="1" parent="CJ_4Z4QV0hS_-EtavO5i-193">
          <mxGeometry x="53" width="27" height="27" as="geometry" />
        </mxCell>
        <mxCell id="CJ_4Z4QV0hS_-EtavO5i-197" value="" style="shape=partialRectangle;html=1;whiteSpace=wrap;collapsible=0;dropTarget=0;pointerEvents=0;fillColor=none;top=0;left=0;bottom=0;right=0;points=[[0,0.5],[1,0.5]];portConstraint=eastwest;" vertex="1" parent="CJ_4Z4QV0hS_-EtavO5i-192">
          <mxGeometry y="27" width="80" height="26" as="geometry" />
        </mxCell>
        <mxCell id="CJ_4Z4QV0hS_-EtavO5i-198" value="" style="shape=partialRectangle;html=1;whiteSpace=wrap;connectable=0;fillColor=none;top=0;left=0;bottom=0;right=0;overflow=hidden;" vertex="1" parent="CJ_4Z4QV0hS_-EtavO5i-197">
          <mxGeometry width="27" height="26" as="geometry" />
        </mxCell>
        <mxCell id="CJ_4Z4QV0hS_-EtavO5i-199" value="" style="shape=partialRectangle;html=1;whiteSpace=wrap;connectable=0;fillColor=none;top=0;left=0;bottom=0;right=0;overflow=hidden;" vertex="1" parent="CJ_4Z4QV0hS_-EtavO5i-197">
          <mxGeometry x="27" width="26" height="26" as="geometry" />
        </mxCell>
        <mxCell id="CJ_4Z4QV0hS_-EtavO5i-200" value="" style="shape=partialRectangle;html=1;whiteSpace=wrap;connectable=0;fillColor=none;top=0;left=0;bottom=0;right=0;overflow=hidden;" vertex="1" parent="CJ_4Z4QV0hS_-EtavO5i-197">
          <mxGeometry x="53" width="27" height="26" as="geometry" />
        </mxCell>
        <mxCell id="CJ_4Z4QV0hS_-EtavO5i-201" value="" style="shape=partialRectangle;html=1;whiteSpace=wrap;collapsible=0;dropTarget=0;pointerEvents=0;fillColor=none;top=0;left=0;bottom=0;right=0;points=[[0,0.5],[1,0.5]];portConstraint=eastwest;" vertex="1" parent="CJ_4Z4QV0hS_-EtavO5i-192">
          <mxGeometry y="53" width="80" height="27" as="geometry" />
        </mxCell>
        <mxCell id="CJ_4Z4QV0hS_-EtavO5i-202" value="" style="shape=partialRectangle;html=1;whiteSpace=wrap;connectable=0;fillColor=#ffe6cc;top=0;left=0;bottom=0;right=0;overflow=hidden;strokeColor=#d79b00;" vertex="1" parent="CJ_4Z4QV0hS_-EtavO5i-201">
          <mxGeometry width="27" height="27" as="geometry" />
        </mxCell>
        <mxCell id="CJ_4Z4QV0hS_-EtavO5i-203" value="" style="shape=partialRectangle;html=1;whiteSpace=wrap;connectable=0;fillColor=none;top=0;left=0;bottom=0;right=0;overflow=hidden;" vertex="1" parent="CJ_4Z4QV0hS_-EtavO5i-201">
          <mxGeometry x="27" width="26" height="27" as="geometry" />
        </mxCell>
        <mxCell id="CJ_4Z4QV0hS_-EtavO5i-204" value="" style="shape=partialRectangle;html=1;whiteSpace=wrap;connectable=0;fillColor=none;top=0;left=0;bottom=0;right=0;overflow=hidden;" vertex="1" parent="CJ_4Z4QV0hS_-EtavO5i-201">
          <mxGeometry x="53" width="27" height="27" as="geometry" />
        </mxCell>
        <mxCell id="CJ_4Z4QV0hS_-EtavO5i-205" value="" style="shape=table;html=1;whiteSpace=wrap;startSize=0;container=1;collapsible=0;childLayout=tableLayout;" vertex="1" parent="1">
          <mxGeometry x="480" y="260" width="80" height="80" as="geometry" />
        </mxCell>
        <mxCell id="CJ_4Z4QV0hS_-EtavO5i-206" value="" style="shape=partialRectangle;html=1;whiteSpace=wrap;collapsible=0;dropTarget=0;pointerEvents=0;fillColor=none;top=0;left=0;bottom=0;right=0;points=[[0,0.5],[1,0.5]];portConstraint=eastwest;" vertex="1" parent="CJ_4Z4QV0hS_-EtavO5i-205">
          <mxGeometry width="80" height="27" as="geometry" />
        </mxCell>
        <mxCell id="CJ_4Z4QV0hS_-EtavO5i-207" value="" style="shape=partialRectangle;html=1;whiteSpace=wrap;connectable=0;fillColor=none;top=0;left=0;bottom=0;right=0;overflow=hidden;" vertex="1" parent="CJ_4Z4QV0hS_-EtavO5i-206">
          <mxGeometry width="27" height="27" as="geometry" />
        </mxCell>
        <mxCell id="CJ_4Z4QV0hS_-EtavO5i-208" value="" style="shape=partialRectangle;html=1;whiteSpace=wrap;connectable=0;fillColor=none;top=0;left=0;bottom=0;right=0;overflow=hidden;" vertex="1" parent="CJ_4Z4QV0hS_-EtavO5i-206">
          <mxGeometry x="27" width="26" height="27" as="geometry" />
        </mxCell>
        <mxCell id="CJ_4Z4QV0hS_-EtavO5i-209" value="" style="shape=partialRectangle;html=1;whiteSpace=wrap;connectable=0;fillColor=#ffe6cc;top=0;left=0;bottom=0;right=0;overflow=hidden;strokeColor=#d79b00;" vertex="1" parent="CJ_4Z4QV0hS_-EtavO5i-206">
          <mxGeometry x="53" width="27" height="27" as="geometry" />
        </mxCell>
        <mxCell id="CJ_4Z4QV0hS_-EtavO5i-210" value="" style="shape=partialRectangle;html=1;whiteSpace=wrap;collapsible=0;dropTarget=0;pointerEvents=0;fillColor=none;top=0;left=0;bottom=0;right=0;points=[[0,0.5],[1,0.5]];portConstraint=eastwest;" vertex="1" parent="CJ_4Z4QV0hS_-EtavO5i-205">
          <mxGeometry y="27" width="80" height="26" as="geometry" />
        </mxCell>
        <mxCell id="CJ_4Z4QV0hS_-EtavO5i-211" value="" style="shape=partialRectangle;html=1;whiteSpace=wrap;connectable=0;fillColor=none;top=0;left=0;bottom=0;right=0;overflow=hidden;" vertex="1" parent="CJ_4Z4QV0hS_-EtavO5i-210">
          <mxGeometry width="27" height="26" as="geometry" />
        </mxCell>
        <mxCell id="CJ_4Z4QV0hS_-EtavO5i-212" value="" style="shape=partialRectangle;html=1;whiteSpace=wrap;connectable=0;fillColor=none;top=0;left=0;bottom=0;right=0;overflow=hidden;" vertex="1" parent="CJ_4Z4QV0hS_-EtavO5i-210">
          <mxGeometry x="27" width="26" height="26" as="geometry" />
        </mxCell>
        <mxCell id="CJ_4Z4QV0hS_-EtavO5i-213" value="" style="shape=partialRectangle;html=1;whiteSpace=wrap;connectable=0;fillColor=none;top=0;left=0;bottom=0;right=0;overflow=hidden;" vertex="1" parent="CJ_4Z4QV0hS_-EtavO5i-210">
          <mxGeometry x="53" width="27" height="26" as="geometry" />
        </mxCell>
        <mxCell id="CJ_4Z4QV0hS_-EtavO5i-214" value="" style="shape=partialRectangle;html=1;whiteSpace=wrap;collapsible=0;dropTarget=0;pointerEvents=0;fillColor=none;top=0;left=0;bottom=0;right=0;points=[[0,0.5],[1,0.5]];portConstraint=eastwest;" vertex="1" parent="CJ_4Z4QV0hS_-EtavO5i-205">
          <mxGeometry y="53" width="80" height="27" as="geometry" />
        </mxCell>
        <mxCell id="CJ_4Z4QV0hS_-EtavO5i-215" value="" style="shape=partialRectangle;html=1;whiteSpace=wrap;connectable=0;fillColor=none;top=0;left=0;bottom=0;right=0;overflow=hidden;" vertex="1" parent="CJ_4Z4QV0hS_-EtavO5i-214">
          <mxGeometry width="27" height="27" as="geometry" />
        </mxCell>
        <mxCell id="CJ_4Z4QV0hS_-EtavO5i-216" value="" style="shape=partialRectangle;html=1;whiteSpace=wrap;connectable=0;fillColor=none;top=0;left=0;bottom=0;right=0;overflow=hidden;" vertex="1" parent="CJ_4Z4QV0hS_-EtavO5i-214">
          <mxGeometry x="27" width="26" height="27" as="geometry" />
        </mxCell>
        <mxCell id="CJ_4Z4QV0hS_-EtavO5i-217" value="" style="shape=partialRectangle;html=1;whiteSpace=wrap;connectable=0;fillColor=none;top=0;left=0;bottom=0;right=0;overflow=hidden;" vertex="1" parent="CJ_4Z4QV0hS_-EtavO5i-214">
          <mxGeometry x="53" width="27" height="27" as="geometry" />
        </mxCell>
        <mxCell id="CJ_4Z4QV0hS_-EtavO5i-218" value="" style="shape=table;html=1;whiteSpace=wrap;startSize=0;container=1;collapsible=0;childLayout=tableLayout;" vertex="1" parent="1">
          <mxGeometry x="560" y="260" width="80" height="80" as="geometry" />
        </mxCell>
        <mxCell id="CJ_4Z4QV0hS_-EtavO5i-219" value="" style="shape=partialRectangle;html=1;whiteSpace=wrap;collapsible=0;dropTarget=0;pointerEvents=0;fillColor=none;top=0;left=0;bottom=0;right=0;points=[[0,0.5],[1,0.5]];portConstraint=eastwest;" vertex="1" parent="CJ_4Z4QV0hS_-EtavO5i-218">
          <mxGeometry width="80" height="27" as="geometry" />
        </mxCell>
        <mxCell id="CJ_4Z4QV0hS_-EtavO5i-220" value="" style="shape=partialRectangle;html=1;whiteSpace=wrap;connectable=0;fillColor=#ffe6cc;top=0;left=0;bottom=0;right=0;overflow=hidden;strokeColor=#d79b00;" vertex="1" parent="CJ_4Z4QV0hS_-EtavO5i-219">
          <mxGeometry width="27" height="27" as="geometry" />
        </mxCell>
        <mxCell id="CJ_4Z4QV0hS_-EtavO5i-221" value="" style="shape=partialRectangle;html=1;whiteSpace=wrap;connectable=0;fillColor=none;top=0;left=0;bottom=0;right=0;overflow=hidden;" vertex="1" parent="CJ_4Z4QV0hS_-EtavO5i-219">
          <mxGeometry x="27" width="26" height="27" as="geometry" />
        </mxCell>
        <mxCell id="CJ_4Z4QV0hS_-EtavO5i-222" value="" style="shape=partialRectangle;html=1;whiteSpace=wrap;connectable=0;fillColor=none;top=0;left=0;bottom=0;right=0;overflow=hidden;" vertex="1" parent="CJ_4Z4QV0hS_-EtavO5i-219">
          <mxGeometry x="53" width="27" height="27" as="geometry" />
        </mxCell>
        <mxCell id="CJ_4Z4QV0hS_-EtavO5i-223" value="" style="shape=partialRectangle;html=1;whiteSpace=wrap;collapsible=0;dropTarget=0;pointerEvents=0;fillColor=none;top=0;left=0;bottom=0;right=0;points=[[0,0.5],[1,0.5]];portConstraint=eastwest;" vertex="1" parent="CJ_4Z4QV0hS_-EtavO5i-218">
          <mxGeometry y="27" width="80" height="26" as="geometry" />
        </mxCell>
        <mxCell id="CJ_4Z4QV0hS_-EtavO5i-224" value="" style="shape=partialRectangle;html=1;whiteSpace=wrap;connectable=0;fillColor=none;top=0;left=0;bottom=0;right=0;overflow=hidden;" vertex="1" parent="CJ_4Z4QV0hS_-EtavO5i-223">
          <mxGeometry width="27" height="26" as="geometry" />
        </mxCell>
        <mxCell id="CJ_4Z4QV0hS_-EtavO5i-225" value="" style="shape=partialRectangle;html=1;whiteSpace=wrap;connectable=0;fillColor=none;top=0;left=0;bottom=0;right=0;overflow=hidden;" vertex="1" parent="CJ_4Z4QV0hS_-EtavO5i-223">
          <mxGeometry x="27" width="26" height="26" as="geometry" />
        </mxCell>
        <mxCell id="CJ_4Z4QV0hS_-EtavO5i-226" value="" style="shape=partialRectangle;html=1;whiteSpace=wrap;connectable=0;fillColor=none;top=0;left=0;bottom=0;right=0;overflow=hidden;" vertex="1" parent="CJ_4Z4QV0hS_-EtavO5i-223">
          <mxGeometry x="53" width="27" height="26" as="geometry" />
        </mxCell>
        <mxCell id="CJ_4Z4QV0hS_-EtavO5i-227" value="" style="shape=partialRectangle;html=1;whiteSpace=wrap;collapsible=0;dropTarget=0;pointerEvents=0;fillColor=none;top=0;left=0;bottom=0;right=0;points=[[0,0.5],[1,0.5]];portConstraint=eastwest;" vertex="1" parent="CJ_4Z4QV0hS_-EtavO5i-218">
          <mxGeometry y="53" width="80" height="27" as="geometry" />
        </mxCell>
        <mxCell id="CJ_4Z4QV0hS_-EtavO5i-228" value="" style="shape=partialRectangle;html=1;whiteSpace=wrap;connectable=0;fillColor=none;top=0;left=0;bottom=0;right=0;overflow=hidden;" vertex="1" parent="CJ_4Z4QV0hS_-EtavO5i-227">
          <mxGeometry width="27" height="27" as="geometry" />
        </mxCell>
        <mxCell id="CJ_4Z4QV0hS_-EtavO5i-229" value="" style="shape=partialRectangle;html=1;whiteSpace=wrap;connectable=0;fillColor=none;top=0;left=0;bottom=0;right=0;overflow=hidden;" vertex="1" parent="CJ_4Z4QV0hS_-EtavO5i-227">
          <mxGeometry x="27" width="26" height="27" as="geometry" />
        </mxCell>
        <mxCell id="CJ_4Z4QV0hS_-EtavO5i-230" value="" style="shape=partialRectangle;html=1;whiteSpace=wrap;connectable=0;fillColor=none;top=0;left=0;bottom=0;right=0;overflow=hidden;" vertex="1" parent="CJ_4Z4QV0hS_-EtavO5i-227">
          <mxGeometry x="53" width="27" height="27" as="geometry" />
        </mxCell>
        <mxCell id="CJ_4Z4QV0hS_-EtavO5i-232" value="" style="shape=table;html=1;whiteSpace=wrap;startSize=0;container=1;collapsible=0;childLayout=tableLayout;" vertex="1" parent="1">
          <mxGeometry x="460" y="210" width="80" height="80" as="geometry" />
        </mxCell>
        <mxCell id="CJ_4Z4QV0hS_-EtavO5i-233" value="" style="shape=partialRectangle;html=1;whiteSpace=wrap;collapsible=0;dropTarget=0;pointerEvents=0;fillColor=none;top=0;left=0;bottom=0;right=0;points=[[0,0.5],[1,0.5]];portConstraint=eastwest;" vertex="1" parent="CJ_4Z4QV0hS_-EtavO5i-232">
          <mxGeometry width="80" height="27" as="geometry" />
        </mxCell>
        <mxCell id="CJ_4Z4QV0hS_-EtavO5i-234" value="" style="shape=partialRectangle;html=1;whiteSpace=wrap;connectable=0;fillColor=none;top=0;left=0;bottom=0;right=0;overflow=hidden;" vertex="1" parent="CJ_4Z4QV0hS_-EtavO5i-233">
          <mxGeometry width="27" height="27" as="geometry" />
        </mxCell>
        <mxCell id="CJ_4Z4QV0hS_-EtavO5i-235" value="" style="shape=partialRectangle;html=1;whiteSpace=wrap;connectable=0;fillColor=none;top=0;left=0;bottom=0;right=0;overflow=hidden;" vertex="1" parent="CJ_4Z4QV0hS_-EtavO5i-233">
          <mxGeometry x="27" width="26" height="27" as="geometry" />
        </mxCell>
        <mxCell id="CJ_4Z4QV0hS_-EtavO5i-236" value="" style="shape=partialRectangle;html=1;whiteSpace=wrap;connectable=0;fillColor=none;top=0;left=0;bottom=0;right=0;overflow=hidden;" vertex="1" parent="CJ_4Z4QV0hS_-EtavO5i-233">
          <mxGeometry x="53" width="27" height="27" as="geometry" />
        </mxCell>
        <mxCell id="CJ_4Z4QV0hS_-EtavO5i-237" value="" style="shape=partialRectangle;html=1;whiteSpace=wrap;collapsible=0;dropTarget=0;pointerEvents=0;fillColor=none;top=0;left=0;bottom=0;right=0;points=[[0,0.5],[1,0.5]];portConstraint=eastwest;" vertex="1" parent="CJ_4Z4QV0hS_-EtavO5i-232">
          <mxGeometry y="27" width="80" height="26" as="geometry" />
        </mxCell>
        <mxCell id="CJ_4Z4QV0hS_-EtavO5i-238" value="" style="shape=partialRectangle;html=1;whiteSpace=wrap;connectable=0;fillColor=none;top=0;left=0;bottom=0;right=0;overflow=hidden;" vertex="1" parent="CJ_4Z4QV0hS_-EtavO5i-237">
          <mxGeometry width="27" height="26" as="geometry" />
        </mxCell>
        <mxCell id="CJ_4Z4QV0hS_-EtavO5i-239" value="" style="shape=partialRectangle;html=1;whiteSpace=wrap;connectable=0;fillColor=none;top=0;left=0;bottom=0;right=0;overflow=hidden;" vertex="1" parent="CJ_4Z4QV0hS_-EtavO5i-237">
          <mxGeometry x="27" width="26" height="26" as="geometry" />
        </mxCell>
        <mxCell id="CJ_4Z4QV0hS_-EtavO5i-240" value="" style="shape=partialRectangle;html=1;whiteSpace=wrap;connectable=0;fillColor=none;top=0;left=0;bottom=0;right=0;overflow=hidden;" vertex="1" parent="CJ_4Z4QV0hS_-EtavO5i-237">
          <mxGeometry x="53" width="27" height="26" as="geometry" />
        </mxCell>
        <mxCell id="CJ_4Z4QV0hS_-EtavO5i-241" value="" style="shape=partialRectangle;html=1;whiteSpace=wrap;collapsible=0;dropTarget=0;pointerEvents=0;fillColor=none;top=0;left=0;bottom=0;right=0;points=[[0,0.5],[1,0.5]];portConstraint=eastwest;" vertex="1" parent="CJ_4Z4QV0hS_-EtavO5i-232">
          <mxGeometry y="53" width="80" height="27" as="geometry" />
        </mxCell>
        <mxCell id="CJ_4Z4QV0hS_-EtavO5i-242" value="" style="shape=partialRectangle;html=1;whiteSpace=wrap;connectable=0;fillColor=none;top=0;left=0;bottom=0;right=0;overflow=hidden;" vertex="1" parent="CJ_4Z4QV0hS_-EtavO5i-241">
          <mxGeometry width="27" height="27" as="geometry" />
        </mxCell>
        <mxCell id="CJ_4Z4QV0hS_-EtavO5i-243" value="" style="shape=partialRectangle;html=1;whiteSpace=wrap;connectable=0;fillColor=none;top=0;left=0;bottom=0;right=0;overflow=hidden;" vertex="1" parent="CJ_4Z4QV0hS_-EtavO5i-241">
          <mxGeometry x="27" width="26" height="27" as="geometry" />
        </mxCell>
        <mxCell id="CJ_4Z4QV0hS_-EtavO5i-244" value="" style="shape=partialRectangle;html=1;whiteSpace=wrap;connectable=0;fillColor=#ffe6cc;top=0;left=0;bottom=0;right=0;overflow=hidden;strokeColor=#d79b00;" vertex="1" parent="CJ_4Z4QV0hS_-EtavO5i-241">
          <mxGeometry x="53" width="27" height="27" as="geometry" />
        </mxCell>
        <mxCell id="CJ_4Z4QV0hS_-EtavO5i-245" value="" style="shape=table;html=1;whiteSpace=wrap;startSize=0;container=1;collapsible=0;childLayout=tableLayout;" vertex="1" parent="1">
          <mxGeometry x="540" y="210" width="80" height="80" as="geometry" />
        </mxCell>
        <mxCell id="CJ_4Z4QV0hS_-EtavO5i-246" value="" style="shape=partialRectangle;html=1;whiteSpace=wrap;collapsible=0;dropTarget=0;pointerEvents=0;fillColor=none;top=0;left=0;bottom=0;right=0;points=[[0,0.5],[1,0.5]];portConstraint=eastwest;" vertex="1" parent="CJ_4Z4QV0hS_-EtavO5i-245">
          <mxGeometry width="80" height="27" as="geometry" />
        </mxCell>
        <mxCell id="CJ_4Z4QV0hS_-EtavO5i-247" value="" style="shape=partialRectangle;html=1;whiteSpace=wrap;connectable=0;fillColor=none;top=0;left=0;bottom=0;right=0;overflow=hidden;" vertex="1" parent="CJ_4Z4QV0hS_-EtavO5i-246">
          <mxGeometry width="27" height="27" as="geometry" />
        </mxCell>
        <mxCell id="CJ_4Z4QV0hS_-EtavO5i-248" value="" style="shape=partialRectangle;html=1;whiteSpace=wrap;connectable=0;fillColor=none;top=0;left=0;bottom=0;right=0;overflow=hidden;" vertex="1" parent="CJ_4Z4QV0hS_-EtavO5i-246">
          <mxGeometry x="27" width="26" height="27" as="geometry" />
        </mxCell>
        <mxCell id="CJ_4Z4QV0hS_-EtavO5i-249" value="" style="shape=partialRectangle;html=1;whiteSpace=wrap;connectable=0;fillColor=none;top=0;left=0;bottom=0;right=0;overflow=hidden;" vertex="1" parent="CJ_4Z4QV0hS_-EtavO5i-246">
          <mxGeometry x="53" width="27" height="27" as="geometry" />
        </mxCell>
        <mxCell id="CJ_4Z4QV0hS_-EtavO5i-250" value="" style="shape=partialRectangle;html=1;whiteSpace=wrap;collapsible=0;dropTarget=0;pointerEvents=0;fillColor=none;top=0;left=0;bottom=0;right=0;points=[[0,0.5],[1,0.5]];portConstraint=eastwest;" vertex="1" parent="CJ_4Z4QV0hS_-EtavO5i-245">
          <mxGeometry y="27" width="80" height="26" as="geometry" />
        </mxCell>
        <mxCell id="CJ_4Z4QV0hS_-EtavO5i-251" value="" style="shape=partialRectangle;html=1;whiteSpace=wrap;connectable=0;fillColor=none;top=0;left=0;bottom=0;right=0;overflow=hidden;" vertex="1" parent="CJ_4Z4QV0hS_-EtavO5i-250">
          <mxGeometry width="27" height="26" as="geometry" />
        </mxCell>
        <mxCell id="CJ_4Z4QV0hS_-EtavO5i-252" value="" style="shape=partialRectangle;html=1;whiteSpace=wrap;connectable=0;fillColor=none;top=0;left=0;bottom=0;right=0;overflow=hidden;" vertex="1" parent="CJ_4Z4QV0hS_-EtavO5i-250">
          <mxGeometry x="27" width="26" height="26" as="geometry" />
        </mxCell>
        <mxCell id="CJ_4Z4QV0hS_-EtavO5i-253" value="" style="shape=partialRectangle;html=1;whiteSpace=wrap;connectable=0;fillColor=none;top=0;left=0;bottom=0;right=0;overflow=hidden;" vertex="1" parent="CJ_4Z4QV0hS_-EtavO5i-250">
          <mxGeometry x="53" width="27" height="26" as="geometry" />
        </mxCell>
        <mxCell id="CJ_4Z4QV0hS_-EtavO5i-254" value="" style="shape=partialRectangle;html=1;whiteSpace=wrap;collapsible=0;dropTarget=0;pointerEvents=0;fillColor=none;top=0;left=0;bottom=0;right=0;points=[[0,0.5],[1,0.5]];portConstraint=eastwest;" vertex="1" parent="CJ_4Z4QV0hS_-EtavO5i-245">
          <mxGeometry y="53" width="80" height="27" as="geometry" />
        </mxCell>
        <mxCell id="CJ_4Z4QV0hS_-EtavO5i-255" value="" style="shape=partialRectangle;html=1;whiteSpace=wrap;connectable=0;fillColor=#ffe6cc;top=0;left=0;bottom=0;right=0;overflow=hidden;strokeColor=#d79b00;" vertex="1" parent="CJ_4Z4QV0hS_-EtavO5i-254">
          <mxGeometry width="27" height="27" as="geometry" />
        </mxCell>
        <mxCell id="CJ_4Z4QV0hS_-EtavO5i-256" value="" style="shape=partialRectangle;html=1;whiteSpace=wrap;connectable=0;fillColor=none;top=0;left=0;bottom=0;right=0;overflow=hidden;" vertex="1" parent="CJ_4Z4QV0hS_-EtavO5i-254">
          <mxGeometry x="27" width="26" height="27" as="geometry" />
        </mxCell>
        <mxCell id="CJ_4Z4QV0hS_-EtavO5i-257" value="" style="shape=partialRectangle;html=1;whiteSpace=wrap;connectable=0;fillColor=none;top=0;left=0;bottom=0;right=0;overflow=hidden;" vertex="1" parent="CJ_4Z4QV0hS_-EtavO5i-254">
          <mxGeometry x="53" width="27" height="27" as="geometry" />
        </mxCell>
        <mxCell id="CJ_4Z4QV0hS_-EtavO5i-258" value="" style="shape=table;html=1;whiteSpace=wrap;startSize=0;container=1;collapsible=0;childLayout=tableLayout;" vertex="1" parent="1">
          <mxGeometry x="460" y="290" width="80" height="80" as="geometry" />
        </mxCell>
        <mxCell id="CJ_4Z4QV0hS_-EtavO5i-259" value="" style="shape=partialRectangle;html=1;whiteSpace=wrap;collapsible=0;dropTarget=0;pointerEvents=0;fillColor=none;top=0;left=0;bottom=0;right=0;points=[[0,0.5],[1,0.5]];portConstraint=eastwest;" vertex="1" parent="CJ_4Z4QV0hS_-EtavO5i-258">
          <mxGeometry width="80" height="27" as="geometry" />
        </mxCell>
        <mxCell id="CJ_4Z4QV0hS_-EtavO5i-260" value="" style="shape=partialRectangle;html=1;whiteSpace=wrap;connectable=0;fillColor=none;top=0;left=0;bottom=0;right=0;overflow=hidden;" vertex="1" parent="CJ_4Z4QV0hS_-EtavO5i-259">
          <mxGeometry width="27" height="27" as="geometry" />
        </mxCell>
        <mxCell id="CJ_4Z4QV0hS_-EtavO5i-261" value="" style="shape=partialRectangle;html=1;whiteSpace=wrap;connectable=0;fillColor=none;top=0;left=0;bottom=0;right=0;overflow=hidden;" vertex="1" parent="CJ_4Z4QV0hS_-EtavO5i-259">
          <mxGeometry x="27" width="26" height="27" as="geometry" />
        </mxCell>
        <mxCell id="CJ_4Z4QV0hS_-EtavO5i-262" value="" style="shape=partialRectangle;html=1;whiteSpace=wrap;connectable=0;fillColor=#ffe6cc;top=0;left=0;bottom=0;right=0;overflow=hidden;strokeColor=#d79b00;" vertex="1" parent="CJ_4Z4QV0hS_-EtavO5i-259">
          <mxGeometry x="53" width="27" height="27" as="geometry" />
        </mxCell>
        <mxCell id="CJ_4Z4QV0hS_-EtavO5i-263" value="" style="shape=partialRectangle;html=1;whiteSpace=wrap;collapsible=0;dropTarget=0;pointerEvents=0;fillColor=none;top=0;left=0;bottom=0;right=0;points=[[0,0.5],[1,0.5]];portConstraint=eastwest;" vertex="1" parent="CJ_4Z4QV0hS_-EtavO5i-258">
          <mxGeometry y="27" width="80" height="26" as="geometry" />
        </mxCell>
        <mxCell id="CJ_4Z4QV0hS_-EtavO5i-264" value="" style="shape=partialRectangle;html=1;whiteSpace=wrap;connectable=0;fillColor=none;top=0;left=0;bottom=0;right=0;overflow=hidden;" vertex="1" parent="CJ_4Z4QV0hS_-EtavO5i-263">
          <mxGeometry width="27" height="26" as="geometry" />
        </mxCell>
        <mxCell id="CJ_4Z4QV0hS_-EtavO5i-265" value="" style="shape=partialRectangle;html=1;whiteSpace=wrap;connectable=0;fillColor=none;top=0;left=0;bottom=0;right=0;overflow=hidden;" vertex="1" parent="CJ_4Z4QV0hS_-EtavO5i-263">
          <mxGeometry x="27" width="26" height="26" as="geometry" />
        </mxCell>
        <mxCell id="CJ_4Z4QV0hS_-EtavO5i-266" value="" style="shape=partialRectangle;html=1;whiteSpace=wrap;connectable=0;fillColor=none;top=0;left=0;bottom=0;right=0;overflow=hidden;" vertex="1" parent="CJ_4Z4QV0hS_-EtavO5i-263">
          <mxGeometry x="53" width="27" height="26" as="geometry" />
        </mxCell>
        <mxCell id="CJ_4Z4QV0hS_-EtavO5i-267" value="" style="shape=partialRectangle;html=1;whiteSpace=wrap;collapsible=0;dropTarget=0;pointerEvents=0;fillColor=none;top=0;left=0;bottom=0;right=0;points=[[0,0.5],[1,0.5]];portConstraint=eastwest;" vertex="1" parent="CJ_4Z4QV0hS_-EtavO5i-258">
          <mxGeometry y="53" width="80" height="27" as="geometry" />
        </mxCell>
        <mxCell id="CJ_4Z4QV0hS_-EtavO5i-268" value="" style="shape=partialRectangle;html=1;whiteSpace=wrap;connectable=0;fillColor=none;top=0;left=0;bottom=0;right=0;overflow=hidden;" vertex="1" parent="CJ_4Z4QV0hS_-EtavO5i-267">
          <mxGeometry width="27" height="27" as="geometry" />
        </mxCell>
        <mxCell id="CJ_4Z4QV0hS_-EtavO5i-269" value="" style="shape=partialRectangle;html=1;whiteSpace=wrap;connectable=0;fillColor=none;top=0;left=0;bottom=0;right=0;overflow=hidden;" vertex="1" parent="CJ_4Z4QV0hS_-EtavO5i-267">
          <mxGeometry x="27" width="26" height="27" as="geometry" />
        </mxCell>
        <mxCell id="CJ_4Z4QV0hS_-EtavO5i-270" value="" style="shape=partialRectangle;html=1;whiteSpace=wrap;connectable=0;fillColor=none;top=0;left=0;bottom=0;right=0;overflow=hidden;" vertex="1" parent="CJ_4Z4QV0hS_-EtavO5i-267">
          <mxGeometry x="53" width="27" height="27" as="geometry" />
        </mxCell>
        <mxCell id="CJ_4Z4QV0hS_-EtavO5i-271" value="" style="shape=table;html=1;whiteSpace=wrap;startSize=0;container=1;collapsible=0;childLayout=tableLayout;" vertex="1" parent="1">
          <mxGeometry x="540" y="290" width="80" height="80" as="geometry" />
        </mxCell>
        <mxCell id="CJ_4Z4QV0hS_-EtavO5i-272" value="" style="shape=partialRectangle;html=1;whiteSpace=wrap;collapsible=0;dropTarget=0;pointerEvents=0;fillColor=none;top=0;left=0;bottom=0;right=0;points=[[0,0.5],[1,0.5]];portConstraint=eastwest;" vertex="1" parent="CJ_4Z4QV0hS_-EtavO5i-271">
          <mxGeometry width="80" height="27" as="geometry" />
        </mxCell>
        <mxCell id="CJ_4Z4QV0hS_-EtavO5i-273" value="" style="shape=partialRectangle;html=1;whiteSpace=wrap;connectable=0;fillColor=#ffe6cc;top=0;left=0;bottom=0;right=0;overflow=hidden;strokeColor=#d79b00;" vertex="1" parent="CJ_4Z4QV0hS_-EtavO5i-272">
          <mxGeometry width="27" height="27" as="geometry" />
        </mxCell>
        <mxCell id="CJ_4Z4QV0hS_-EtavO5i-274" value="" style="shape=partialRectangle;html=1;whiteSpace=wrap;connectable=0;fillColor=none;top=0;left=0;bottom=0;right=0;overflow=hidden;" vertex="1" parent="CJ_4Z4QV0hS_-EtavO5i-272">
          <mxGeometry x="27" width="26" height="27" as="geometry" />
        </mxCell>
        <mxCell id="CJ_4Z4QV0hS_-EtavO5i-275" value="" style="shape=partialRectangle;html=1;whiteSpace=wrap;connectable=0;fillColor=none;top=0;left=0;bottom=0;right=0;overflow=hidden;" vertex="1" parent="CJ_4Z4QV0hS_-EtavO5i-272">
          <mxGeometry x="53" width="27" height="27" as="geometry" />
        </mxCell>
        <mxCell id="CJ_4Z4QV0hS_-EtavO5i-276" value="" style="shape=partialRectangle;html=1;whiteSpace=wrap;collapsible=0;dropTarget=0;pointerEvents=0;fillColor=none;top=0;left=0;bottom=0;right=0;points=[[0,0.5],[1,0.5]];portConstraint=eastwest;" vertex="1" parent="CJ_4Z4QV0hS_-EtavO5i-271">
          <mxGeometry y="27" width="80" height="26" as="geometry" />
        </mxCell>
        <mxCell id="CJ_4Z4QV0hS_-EtavO5i-277" value="" style="shape=partialRectangle;html=1;whiteSpace=wrap;connectable=0;fillColor=none;top=0;left=0;bottom=0;right=0;overflow=hidden;" vertex="1" parent="CJ_4Z4QV0hS_-EtavO5i-276">
          <mxGeometry width="27" height="26" as="geometry" />
        </mxCell>
        <mxCell id="CJ_4Z4QV0hS_-EtavO5i-278" value="" style="shape=partialRectangle;html=1;whiteSpace=wrap;connectable=0;fillColor=none;top=0;left=0;bottom=0;right=0;overflow=hidden;" vertex="1" parent="CJ_4Z4QV0hS_-EtavO5i-276">
          <mxGeometry x="27" width="26" height="26" as="geometry" />
        </mxCell>
        <mxCell id="CJ_4Z4QV0hS_-EtavO5i-279" value="" style="shape=partialRectangle;html=1;whiteSpace=wrap;connectable=0;fillColor=none;top=0;left=0;bottom=0;right=0;overflow=hidden;" vertex="1" parent="CJ_4Z4QV0hS_-EtavO5i-276">
          <mxGeometry x="53" width="27" height="26" as="geometry" />
        </mxCell>
        <mxCell id="CJ_4Z4QV0hS_-EtavO5i-280" value="" style="shape=partialRectangle;html=1;whiteSpace=wrap;collapsible=0;dropTarget=0;pointerEvents=0;fillColor=none;top=0;left=0;bottom=0;right=0;points=[[0,0.5],[1,0.5]];portConstraint=eastwest;" vertex="1" parent="CJ_4Z4QV0hS_-EtavO5i-271">
          <mxGeometry y="53" width="80" height="27" as="geometry" />
        </mxCell>
        <mxCell id="CJ_4Z4QV0hS_-EtavO5i-281" value="" style="shape=partialRectangle;html=1;whiteSpace=wrap;connectable=0;fillColor=none;top=0;left=0;bottom=0;right=0;overflow=hidden;" vertex="1" parent="CJ_4Z4QV0hS_-EtavO5i-280">
          <mxGeometry width="27" height="27" as="geometry" />
        </mxCell>
        <mxCell id="CJ_4Z4QV0hS_-EtavO5i-282" value="" style="shape=partialRectangle;html=1;whiteSpace=wrap;connectable=0;fillColor=none;top=0;left=0;bottom=0;right=0;overflow=hidden;" vertex="1" parent="CJ_4Z4QV0hS_-EtavO5i-280">
          <mxGeometry x="27" width="26" height="27" as="geometry" />
        </mxCell>
        <mxCell id="CJ_4Z4QV0hS_-EtavO5i-283" value="" style="shape=partialRectangle;html=1;whiteSpace=wrap;connectable=0;fillColor=none;top=0;left=0;bottom=0;right=0;overflow=hidden;" vertex="1" parent="CJ_4Z4QV0hS_-EtavO5i-280">
          <mxGeometry x="53" width="27" height="27" as="geometry" />
        </mxCell>
        <mxCell id="CJ_4Z4QV0hS_-EtavO5i-284" value="局部极值" style="text;html=1;strokeColor=none;fillColor=none;align=center;verticalAlign=middle;whiteSpace=wrap;rounded=0;" vertex="1" parent="1">
          <mxGeometry x="500" y="380" width="80" height="20" as="geometry" />
        </mxCell>
        <mxCell id="CJ_4Z4QV0hS_-EtavO5i-285" value="" style="shape=flexArrow;endArrow=classic;html=1;endWidth=12;endSize=7.33;" edge="1" parent="1">
          <mxGeometry width="50" height="50" relative="1" as="geometry">
            <mxPoint x="40" y="278.82" as="sourcePoint" />
            <mxPoint x="80" y="278.82" as="targetPoint" />
          </mxGeometry>
        </mxCell>
        <mxCell id="CJ_4Z4QV0hS_-EtavO5i-338" value="非线性回归" style="text;html=1;strokeColor=none;fillColor=none;align=center;verticalAlign=middle;whiteSpace=wrap;rounded=0;" vertex="1" parent="1">
          <mxGeometry x="705" y="380" width="80" height="20" as="geometry" />
        </mxCell>
        <mxCell id="CJ_4Z4QV0hS_-EtavO5i-339" value="" style="shape=table;html=1;whiteSpace=wrap;startSize=0;container=1;collapsible=0;childLayout=tableLayout;" vertex="1" parent="1">
          <mxGeometry x="700" y="240" width="90" height="100" as="geometry" />
        </mxCell>
        <mxCell id="CJ_4Z4QV0hS_-EtavO5i-340" value="" style="shape=partialRectangle;html=1;whiteSpace=wrap;collapsible=0;dropTarget=0;pointerEvents=0;fillColor=none;top=0;left=0;bottom=0;right=0;points=[[0,0.5],[1,0.5]];portConstraint=eastwest;" vertex="1" parent="CJ_4Z4QV0hS_-EtavO5i-339">
          <mxGeometry width="90" height="34" as="geometry" />
        </mxCell>
        <mxCell id="CJ_4Z4QV0hS_-EtavO5i-341" value="" style="shape=partialRectangle;html=1;whiteSpace=wrap;connectable=0;fillColor=none;top=0;left=0;bottom=0;right=0;overflow=hidden;" vertex="1" parent="CJ_4Z4QV0hS_-EtavO5i-340">
          <mxGeometry width="30" height="34" as="geometry" />
        </mxCell>
        <mxCell id="CJ_4Z4QV0hS_-EtavO5i-342" value="" style="shape=partialRectangle;html=1;whiteSpace=wrap;connectable=0;fillColor=none;top=0;left=0;bottom=0;right=0;overflow=hidden;" vertex="1" parent="CJ_4Z4QV0hS_-EtavO5i-340">
          <mxGeometry x="30" width="30" height="34" as="geometry" />
        </mxCell>
        <mxCell id="CJ_4Z4QV0hS_-EtavO5i-343" value="" style="shape=partialRectangle;html=1;whiteSpace=wrap;connectable=0;fillColor=none;top=0;left=0;bottom=0;right=0;overflow=hidden;" vertex="1" parent="CJ_4Z4QV0hS_-EtavO5i-340">
          <mxGeometry x="60" width="30" height="34" as="geometry" />
        </mxCell>
        <mxCell id="CJ_4Z4QV0hS_-EtavO5i-344" value="" style="shape=partialRectangle;html=1;whiteSpace=wrap;collapsible=0;dropTarget=0;pointerEvents=0;fillColor=none;top=0;left=0;bottom=0;right=0;points=[[0,0.5],[1,0.5]];portConstraint=eastwest;" vertex="1" parent="CJ_4Z4QV0hS_-EtavO5i-339">
          <mxGeometry y="34" width="90" height="32" as="geometry" />
        </mxCell>
        <mxCell id="CJ_4Z4QV0hS_-EtavO5i-345" value="" style="shape=partialRectangle;html=1;whiteSpace=wrap;connectable=0;fillColor=none;top=0;left=0;bottom=0;right=0;overflow=hidden;" vertex="1" parent="CJ_4Z4QV0hS_-EtavO5i-344">
          <mxGeometry width="30" height="32" as="geometry" />
        </mxCell>
        <mxCell id="CJ_4Z4QV0hS_-EtavO5i-346" value="" style="shape=partialRectangle;html=1;whiteSpace=wrap;connectable=0;fillColor=none;top=0;left=0;bottom=0;right=0;overflow=hidden;" vertex="1" parent="CJ_4Z4QV0hS_-EtavO5i-344">
          <mxGeometry x="30" width="30" height="32" as="geometry" />
        </mxCell>
        <mxCell id="CJ_4Z4QV0hS_-EtavO5i-347" value="" style="shape=partialRectangle;html=1;whiteSpace=wrap;connectable=0;fillColor=none;top=0;left=0;bottom=0;right=0;overflow=hidden;" vertex="1" parent="CJ_4Z4QV0hS_-EtavO5i-344">
          <mxGeometry x="60" width="30" height="32" as="geometry" />
        </mxCell>
        <mxCell id="CJ_4Z4QV0hS_-EtavO5i-348" value="" style="shape=partialRectangle;html=1;whiteSpace=wrap;collapsible=0;dropTarget=0;pointerEvents=0;fillColor=none;top=0;left=0;bottom=0;right=0;points=[[0,0.5],[1,0.5]];portConstraint=eastwest;" vertex="1" parent="CJ_4Z4QV0hS_-EtavO5i-339">
          <mxGeometry y="66" width="90" height="34" as="geometry" />
        </mxCell>
        <mxCell id="CJ_4Z4QV0hS_-EtavO5i-349" value="" style="shape=partialRectangle;html=1;whiteSpace=wrap;connectable=0;fillColor=none;top=0;left=0;bottom=0;right=0;overflow=hidden;" vertex="1" parent="CJ_4Z4QV0hS_-EtavO5i-348">
          <mxGeometry width="30" height="34" as="geometry" />
        </mxCell>
        <mxCell id="CJ_4Z4QV0hS_-EtavO5i-350" value="" style="shape=partialRectangle;html=1;whiteSpace=wrap;connectable=0;fillColor=none;top=0;left=0;bottom=0;right=0;overflow=hidden;" vertex="1" parent="CJ_4Z4QV0hS_-EtavO5i-348">
          <mxGeometry x="30" width="30" height="34" as="geometry" />
        </mxCell>
        <mxCell id="CJ_4Z4QV0hS_-EtavO5i-351" value="" style="shape=partialRectangle;html=1;whiteSpace=wrap;connectable=0;fillColor=none;top=0;left=0;bottom=0;right=0;overflow=hidden;" vertex="1" parent="CJ_4Z4QV0hS_-EtavO5i-348">
          <mxGeometry x="60" width="30" height="34" as="geometry" />
        </mxCell>
        <mxCell id="CJ_4Z4QV0hS_-EtavO5i-353" value="" style="shape=flexArrow;endArrow=classic;html=1;endWidth=12;endSize=7.33;" edge="1" parent="1">
          <mxGeometry width="50" height="50" relative="1" as="geometry">
            <mxPoint x="660" y="279.40999999999997" as="sourcePoint" />
            <mxPoint x="700" y="279.40999999999997" as="targetPoint" />
          </mxGeometry>
        </mxCell>
        <mxCell id="CJ_4Z4QV0hS_-EtavO5i-366" value="" style="shape=table;html=1;whiteSpace=wrap;startSize=0;container=1;collapsible=0;childLayout=tableLayout;" vertex="1" parent="1">
          <mxGeometry x="700" y="210" width="90" height="100" as="geometry" />
        </mxCell>
        <mxCell id="CJ_4Z4QV0hS_-EtavO5i-367" value="" style="shape=partialRectangle;html=1;whiteSpace=wrap;collapsible=0;dropTarget=0;pointerEvents=0;fillColor=none;top=0;left=0;bottom=0;right=0;points=[[0,0.5],[1,0.5]];portConstraint=eastwest;" vertex="1" parent="CJ_4Z4QV0hS_-EtavO5i-366">
          <mxGeometry width="90" height="34" as="geometry" />
        </mxCell>
        <mxCell id="CJ_4Z4QV0hS_-EtavO5i-368" value="" style="shape=partialRectangle;html=1;whiteSpace=wrap;connectable=0;fillColor=none;top=0;left=0;bottom=0;right=0;overflow=hidden;" vertex="1" parent="CJ_4Z4QV0hS_-EtavO5i-367">
          <mxGeometry width="30" height="34" as="geometry" />
        </mxCell>
        <mxCell id="CJ_4Z4QV0hS_-EtavO5i-369" value="" style="shape=partialRectangle;html=1;whiteSpace=wrap;connectable=0;fillColor=none;top=0;left=0;bottom=0;right=0;overflow=hidden;" vertex="1" parent="CJ_4Z4QV0hS_-EtavO5i-367">
          <mxGeometry x="30" width="30" height="34" as="geometry" />
        </mxCell>
        <mxCell id="CJ_4Z4QV0hS_-EtavO5i-370" value="" style="shape=partialRectangle;html=1;whiteSpace=wrap;connectable=0;fillColor=none;top=0;left=0;bottom=0;right=0;overflow=hidden;" vertex="1" parent="CJ_4Z4QV0hS_-EtavO5i-367">
          <mxGeometry x="60" width="30" height="34" as="geometry" />
        </mxCell>
        <mxCell id="CJ_4Z4QV0hS_-EtavO5i-371" value="" style="shape=partialRectangle;html=1;whiteSpace=wrap;collapsible=0;dropTarget=0;pointerEvents=0;fillColor=none;top=0;left=0;bottom=0;right=0;points=[[0,0.5],[1,0.5]];portConstraint=eastwest;" vertex="1" parent="CJ_4Z4QV0hS_-EtavO5i-366">
          <mxGeometry y="34" width="90" height="32" as="geometry" />
        </mxCell>
        <mxCell id="CJ_4Z4QV0hS_-EtavO5i-372" value="" style="shape=partialRectangle;html=1;whiteSpace=wrap;connectable=0;fillColor=none;top=0;left=0;bottom=0;right=0;overflow=hidden;" vertex="1" parent="CJ_4Z4QV0hS_-EtavO5i-371">
          <mxGeometry width="30" height="32" as="geometry" />
        </mxCell>
        <mxCell id="CJ_4Z4QV0hS_-EtavO5i-373" value="" style="shape=partialRectangle;html=1;whiteSpace=wrap;connectable=0;fillColor=none;top=0;left=0;bottom=0;right=0;overflow=hidden;" vertex="1" parent="CJ_4Z4QV0hS_-EtavO5i-371">
          <mxGeometry x="30" width="30" height="32" as="geometry" />
        </mxCell>
        <mxCell id="CJ_4Z4QV0hS_-EtavO5i-374" value="" style="shape=partialRectangle;html=1;whiteSpace=wrap;connectable=0;fillColor=none;top=0;left=0;bottom=0;right=0;overflow=hidden;" vertex="1" parent="CJ_4Z4QV0hS_-EtavO5i-371">
          <mxGeometry x="60" width="30" height="32" as="geometry" />
        </mxCell>
        <mxCell id="CJ_4Z4QV0hS_-EtavO5i-375" value="" style="shape=partialRectangle;html=1;whiteSpace=wrap;collapsible=0;dropTarget=0;pointerEvents=0;fillColor=none;top=0;left=0;bottom=0;right=0;points=[[0,0.5],[1,0.5]];portConstraint=eastwest;" vertex="1" parent="CJ_4Z4QV0hS_-EtavO5i-366">
          <mxGeometry y="66" width="90" height="34" as="geometry" />
        </mxCell>
        <mxCell id="CJ_4Z4QV0hS_-EtavO5i-376" value="" style="shape=partialRectangle;html=1;whiteSpace=wrap;connectable=0;fillColor=none;top=0;left=0;bottom=0;right=0;overflow=hidden;" vertex="1" parent="CJ_4Z4QV0hS_-EtavO5i-375">
          <mxGeometry width="30" height="34" as="geometry" />
        </mxCell>
        <mxCell id="CJ_4Z4QV0hS_-EtavO5i-377" value="" style="shape=partialRectangle;html=1;whiteSpace=wrap;connectable=0;fillColor=none;top=0;left=0;bottom=0;right=0;overflow=hidden;" vertex="1" parent="CJ_4Z4QV0hS_-EtavO5i-375">
          <mxGeometry x="30" width="30" height="34" as="geometry" />
        </mxCell>
        <mxCell id="CJ_4Z4QV0hS_-EtavO5i-378" value="" style="shape=partialRectangle;html=1;whiteSpace=wrap;connectable=0;fillColor=none;top=0;left=0;bottom=0;right=0;overflow=hidden;" vertex="1" parent="CJ_4Z4QV0hS_-EtavO5i-375">
          <mxGeometry x="60" width="30" height="34" as="geometry" />
        </mxCell>
        <mxCell id="CJ_4Z4QV0hS_-EtavO5i-379" value="" style="shape=table;html=1;whiteSpace=wrap;startSize=0;container=1;collapsible=0;childLayout=tableLayout;" vertex="1" parent="1">
          <mxGeometry x="730" y="210" width="90" height="130" as="geometry" />
        </mxCell>
        <mxCell id="CJ_4Z4QV0hS_-EtavO5i-380" value="" style="shape=partialRectangle;html=1;whiteSpace=wrap;collapsible=0;dropTarget=0;pointerEvents=0;fillColor=none;top=0;left=0;bottom=0;right=0;points=[[0,0.5],[1,0.5]];portConstraint=eastwest;" vertex="1" parent="CJ_4Z4QV0hS_-EtavO5i-379">
          <mxGeometry width="90" height="34" as="geometry" />
        </mxCell>
        <mxCell id="CJ_4Z4QV0hS_-EtavO5i-381" value="" style="shape=partialRectangle;html=1;whiteSpace=wrap;connectable=0;fillColor=none;top=0;left=0;bottom=0;right=0;overflow=hidden;" vertex="1" parent="CJ_4Z4QV0hS_-EtavO5i-380">
          <mxGeometry width="30" height="34" as="geometry" />
        </mxCell>
        <mxCell id="CJ_4Z4QV0hS_-EtavO5i-382" value="" style="shape=partialRectangle;html=1;whiteSpace=wrap;connectable=0;fillColor=none;top=0;left=0;bottom=0;right=0;overflow=hidden;" vertex="1" parent="CJ_4Z4QV0hS_-EtavO5i-380">
          <mxGeometry x="30" width="30" height="34" as="geometry" />
        </mxCell>
        <mxCell id="CJ_4Z4QV0hS_-EtavO5i-383" value="" style="shape=partialRectangle;html=1;whiteSpace=wrap;connectable=0;fillColor=none;top=0;left=0;bottom=0;right=0;overflow=hidden;" vertex="1" parent="CJ_4Z4QV0hS_-EtavO5i-380">
          <mxGeometry x="60" width="30" height="34" as="geometry" />
        </mxCell>
        <mxCell id="CJ_4Z4QV0hS_-EtavO5i-384" value="" style="shape=partialRectangle;html=1;whiteSpace=wrap;collapsible=0;dropTarget=0;pointerEvents=0;fillColor=none;top=0;left=0;bottom=0;right=0;points=[[0,0.5],[1,0.5]];portConstraint=eastwest;" vertex="1" parent="CJ_4Z4QV0hS_-EtavO5i-379">
          <mxGeometry y="34" width="90" height="32" as="geometry" />
        </mxCell>
        <mxCell id="CJ_4Z4QV0hS_-EtavO5i-385" value="" style="shape=partialRectangle;html=1;whiteSpace=wrap;connectable=0;fillColor=none;top=0;left=0;bottom=0;right=0;overflow=hidden;" vertex="1" parent="CJ_4Z4QV0hS_-EtavO5i-384">
          <mxGeometry width="30" height="32" as="geometry" />
        </mxCell>
        <mxCell id="CJ_4Z4QV0hS_-EtavO5i-386" value="" style="shape=partialRectangle;html=1;whiteSpace=wrap;connectable=0;fillColor=none;top=0;left=0;bottom=0;right=0;overflow=hidden;" vertex="1" parent="CJ_4Z4QV0hS_-EtavO5i-384">
          <mxGeometry x="30" width="30" height="32" as="geometry" />
        </mxCell>
        <mxCell id="CJ_4Z4QV0hS_-EtavO5i-387" value="" style="shape=partialRectangle;html=1;whiteSpace=wrap;connectable=0;fillColor=none;top=0;left=0;bottom=0;right=0;overflow=hidden;" vertex="1" parent="CJ_4Z4QV0hS_-EtavO5i-384">
          <mxGeometry x="60" width="30" height="32" as="geometry" />
        </mxCell>
        <mxCell id="CJ_4Z4QV0hS_-EtavO5i-406" value="" style="shape=partialRectangle;html=1;whiteSpace=wrap;collapsible=0;dropTarget=0;pointerEvents=0;fillColor=none;top=0;left=0;bottom=0;right=0;points=[[0,0.5],[1,0.5]];portConstraint=eastwest;" vertex="1" parent="CJ_4Z4QV0hS_-EtavO5i-379">
          <mxGeometry y="66" width="90" height="34" as="geometry" />
        </mxCell>
        <mxCell id="CJ_4Z4QV0hS_-EtavO5i-407" value="" style="shape=partialRectangle;html=1;whiteSpace=wrap;connectable=0;fillColor=none;top=0;left=0;bottom=0;right=0;overflow=hidden;" vertex="1" parent="CJ_4Z4QV0hS_-EtavO5i-406">
          <mxGeometry width="30" height="34" as="geometry" />
        </mxCell>
        <mxCell id="CJ_4Z4QV0hS_-EtavO5i-408" value="" style="shape=partialRectangle;html=1;whiteSpace=wrap;connectable=0;fillColor=none;top=0;left=0;bottom=0;right=0;overflow=hidden;" vertex="1" parent="CJ_4Z4QV0hS_-EtavO5i-406">
          <mxGeometry x="30" width="30" height="34" as="geometry" />
        </mxCell>
        <mxCell id="CJ_4Z4QV0hS_-EtavO5i-409" value="" style="shape=partialRectangle;html=1;whiteSpace=wrap;connectable=0;fillColor=none;top=0;left=0;bottom=0;right=0;overflow=hidden;" vertex="1" parent="CJ_4Z4QV0hS_-EtavO5i-406">
          <mxGeometry x="60" width="30" height="34" as="geometry" />
        </mxCell>
        <mxCell id="CJ_4Z4QV0hS_-EtavO5i-410" value="" style="shape=partialRectangle;html=1;whiteSpace=wrap;collapsible=0;dropTarget=0;pointerEvents=0;fillColor=none;top=0;left=0;bottom=0;right=0;points=[[0,0.5],[1,0.5]];portConstraint=eastwest;" vertex="1" parent="CJ_4Z4QV0hS_-EtavO5i-379">
          <mxGeometry y="100" width="90" height="30" as="geometry" />
        </mxCell>
        <mxCell id="CJ_4Z4QV0hS_-EtavO5i-411" value="" style="shape=partialRectangle;html=1;whiteSpace=wrap;connectable=0;fillColor=none;top=0;left=0;bottom=0;right=0;overflow=hidden;" vertex="1" parent="CJ_4Z4QV0hS_-EtavO5i-410">
          <mxGeometry width="30" height="30" as="geometry" />
        </mxCell>
        <mxCell id="CJ_4Z4QV0hS_-EtavO5i-412" value="" style="shape=partialRectangle;html=1;whiteSpace=wrap;connectable=0;fillColor=none;top=0;left=0;bottom=0;right=0;overflow=hidden;" vertex="1" parent="CJ_4Z4QV0hS_-EtavO5i-410">
          <mxGeometry x="30" width="30" height="30" as="geometry" />
        </mxCell>
        <mxCell id="CJ_4Z4QV0hS_-EtavO5i-413" value="" style="shape=partialRectangle;html=1;whiteSpace=wrap;connectable=0;fillColor=none;top=0;left=0;bottom=0;right=0;overflow=hidden;" vertex="1" parent="CJ_4Z4QV0hS_-EtavO5i-410">
          <mxGeometry x="60" width="30" height="30" as="geometry" />
        </mxCell>
        <mxCell id="CJ_4Z4QV0hS_-EtavO5i-125" value="" style="shape=flexArrow;endArrow=classic;html=1;endWidth=12;endSize=7.33;" edge="1" parent="1">
          <mxGeometry width="50" height="50" relative="1" as="geometry">
            <mxPoint x="820" y="278.82" as="sourcePoint" />
            <mxPoint x="860" y="278.82" as="targetPoint" />
          </mxGeometry>
        </mxCell>
      </root>
    </mxGraphModel>
  </diagram>
</mxfile>
